<?xml version="1.0" encoding="UTF-8" standalone="no"?>
<svg
   xmlns:dc="http://purl.org/dc/elements/1.1/"
   xmlns:cc="http://creativecommons.org/ns#"
   xmlns:rdf="http://www.w3.org/1999/02/22-rdf-syntax-ns#"
   xmlns:svg="http://www.w3.org/2000/svg"
   xmlns="http://www.w3.org/2000/svg"
   xmlns:sodipodi="http://sodipodi.sourceforge.net/DTD/sodipodi-0.dtd"
   xmlns:inkscape="http://www.inkscape.org/namespaces/inkscape"
   inkscape:export-ydpi="90.000000"
   inkscape:export-xdpi="90.000000"
   width="736"
   height="544"
   id="svg11300"
   sodipodi:version="0.32"
   inkscape:version="0.91 r"
   sodipodi:docname="cpu.svg"
   inkscape:output_extension="org.inkscape.output.svg.inkscape"
   version="1.0"
   style="display:inline;enable-background:new"
   inkscape:export-filename="/home/sam/paper-template.png">
  <title id="title3004">Paper Icon Theme</title>
  <sodipodi:namedview
     stroke="#ef2929"
     fill="#f57900"
     id="base"
     pagecolor="#4a4a4a"
     bordercolor="#000000"
     borderopacity="0.25490196"
     inkscape:pageopacity="0"
     inkscape:pageshadow="2"
     inkscape:zoom="1"
     inkscape:cx="309.74748"
     inkscape:cy="133.13554"
     inkscape:current-layer="layer6"
     showgrid="false"
     inkscape:grid-bbox="true"
     inkscape:document-units="px"
     inkscape:showpageshadow="false"
     inkscape:window-width="1920"
     inkscape:window-height="1023"
     inkscape:window-x="0"
     inkscape:window-y="27"
     width="400px"
     height="300px"
     inkscape:snap-nodes="true"
     inkscape:snap-bbox="true"
     gridtolerance="10000"
     inkscape:object-nodes="true"
     inkscape:snap-grids="true"
     showguides="true"
     inkscape:guide-bbox="true"
     inkscape:window-maximized="1"
     inkscape:bbox-paths="true"
     inkscape:snap-bbox-midpoints="true"
     inkscape:snap-global="true"
     inkscape:object-paths="true"
     inkscape:snap-intersection-paths="true"
     inkscape:snap-smooth-nodes="true"
     showborder="false">
    <inkscape:grid
       spacingy="1px"
       spacingx="1px"
       id="grid5883"
       type="xygrid"
       enabled="true"
       visible="true"
       empspacing="4"
       snapvisiblegridlinesonly="true" />
    <inkscape:grid
       type="xygrid"
       id="grid11592"
       empspacing="2"
       visible="true"
       enabled="false"
       spacingx="0.5px"
       spacingy="0.5px"
       color="#ff0000"
       opacity="0.1254902"
       empcolor="#ff0000"
       empopacity="0.25098039"
       snapvisiblegridlinesonly="true" />
  </sodipodi:namedview>
  <defs id="defs3">
    <filter
       inkscape:collect="always"
       style="color-interpolation-filters:sRGB"
       id="filter4324"
       x="-0.024"
       width="1.048"
       y="-0.024"
       height="1.048">
      <feGaussianBlur
         inkscape:collect="always"
         stdDeviation="4.48"
         id="feGaussianBlur4326" />
    </filter>
  </defs>
  <metadata id="metadata4">
    <rdf:RDF>
      <cc:Work rdf:about="">
        <dc:format>image/svg+xml</dc:format>
        <dc:type rdf:resource="http://purl.org/dc/dcmitype/StillImage" />
        <dc:creator>
          <cc:Agent>
            <dc:title>Sam Hewitt</dc:title>
          </cc:Agent>
        </dc:creator>
        <dc:source />
        <cc:license rdf:resource="http://creativecommons.org/licenses/by-sa/3.0/" />
        <dc:title>Paper Icon Theme Template</dc:title>
      </cc:Work>
    </rdf:RDF>
  </metadata>
  <g
     style="display:inline"
     inkscape:groupmode="layer"
     inkscape:label="Icon"
     id="layer1"
     transform="translate(0,244)">
    <g
       style="display:none"
       inkscape:label="Baseplate"
       id="layer7"
       inkscape:groupmode="layer">
      <text
         y="337.74512"
         xml:space="preserve"
         x="15.006836"
         style="font-style:normal;font-variant:normal;font-weight:normal;font-stretch:normal;font-size:18px;font-family:'DejaVu Sans';-inkscape-font-specification:'DejaVu Sans';display:inline;fill:#000000;fill-opacity:1;stroke:none;enable-background:new"
         inkscape:label="context"
         id="context"><tspan
           y="337.74512"
           x="15.006836"
           sodipodi:role="line"
           id="tspan3933">devices</tspan></text>
      <text
         y="337.74512"
         xml:space="preserve"
         x="142.48828"
         style="font-style:normal;font-variant:normal;font-weight:bold;font-stretch:normal;font-size:18px;line-height:125%;font-family:'DejaVu Sans';-inkscape-font-specification:'DejaVu Sans Bold';text-align:start;writing-mode:lr-tb;text-anchor:start;display:inline;fill:#000000;fill-opacity:1;stroke:none;enable-background:new"
         sodipodi:linespacing="125%"
         inkscape:label="icon-name"
         id="icon-name"><tspan
           y="337.74512"
           x="142.48828"
           sodipodi:role="line"
           id="tspan3937">cpu</tspan></text>
      <rect
         style="display:inline;overflow:visible;visibility:visible;fill:#d3d7cf;fill-opacity:1;fill-rule:nonzero;stroke:none;stroke-width:2;marker:none;enable-background:accumulate"
         id="rect16x16"
         width="16"
         height="16"
         x="-32"
         y="268"
         inkscape:label="16x16"
         transform="scale(-1,1)" />
      <rect
         style="display:inline;overflow:visible;visibility:visible;fill:#d3d7cf;fill-opacity:1;fill-rule:nonzero;stroke:none;stroke-width:2;marker:none;enable-background:accumulate"
         id="rect24x24"
         width="24"
         height="24"
         x="-76"
         y="260"
         inkscape:label="24x24"
         transform="scale(-1,1)" />
      <rect
         style="display:inline;overflow:visible;visibility:visible;fill:#d3d7cf;fill-opacity:1;fill-rule:nonzero;stroke:none;stroke-width:2;marker:none;enable-background:accumulate"
         id="rect32x32"
         width="32"
         height="32"
         x="-128"
         y="252"
         inkscape:label="32x32"
         transform="scale(-1,1)" />
      <rect
         inkscape:label="48x48"
         y="236"
         x="-192"
         height="48"
         width="48"
         id="rect48x48"
         style="display:inline;overflow:visible;visibility:visible;fill:#d3d7cf;fill-opacity:1;fill-rule:nonzero;stroke:none;stroke-width:2;marker:none;enable-background:accumulate"
         transform="scale(-1,1)" />
      <rect
         style="display:inline;overflow:visible;visibility:visible;fill:#d3d7cf;fill-opacity:1;fill-rule:nonzero;stroke:none;stroke-width:2;marker:none;enable-background:accumulate"
         id="rect3951"
         width="512"
         height="512"
         x="-720"
         y="-228"
         inkscape:label="48x48"
         transform="scale(-1,1)" />
    </g>
    <g
       inkscape:groupmode="layer"
       inkscape:label="Symbols"
       id="layer6"
       style="display:inline">
      <!-- 16x16 -->
      <rect x="17" y="269" width="14" height="14" rx="1" ry="1" fill="#4bae4f" style="stroke:none" />
      <rect x="18" y="269" width="12" height="1" fill="#ffffff" opacity="0.2" style="stroke:none" />
      <rect x="18" y="282" width="12" height="1" fill="#000000" opacity="0.2" style="stroke:none" />
      <rect x="21" y="273" width="6" height="6" rx="0.5" ry="0.5" fill="#37474f" style="stroke:none" />
      <rect x="21" y="271" width="1" height="1" fill="#ffdc65" style="stroke:none" />
      <rect x="27" y="271" width="1" height="1" fill="#ffdc65" style="stroke:none" />
      <rect x="29" y="271" width="1" height="1" fill="#ffdc65" style="stroke:none" />
      <rect x="19" y="273" width="1" height="1" fill="#ffdc65" style="stroke:none" />
      <rect x="29" y="273" width="1" height="1" fill="#ffdc65" style="stroke:none" />
      <rect x="19" y="279" width="1" height="1" fill="#ffdc65" style="stroke:none" />
      <rect x="29" y="279" width="1" height="1" fill="#ffdc65" style="stroke:none" />
      <rect x="19" y="281" width="1" height="1" fill="#ffdc65" style="stroke:none" />
      <rect x="27" y="281" width="1" height="1" fill="#ffdc65" style="stroke:none" />
      <rect x="29" y="281" width="1" height="1" fill="#ffdc65" style="stroke:none" />
      <!-- 24x24 -->
      <rect x="54" y="262" width="20" height="20" rx="1.5" ry="1.5" fill="#4bae4f" style="stroke:none" />
      <rect x="55" y="262" width="18" height="1" fill="#ffffff" opacity="0.2" style="stroke:none" />
      <rect x="55" y="281" width="18" height="1" fill="#000000" opacity="0.2" style="stroke:none" />
      <rect x="60" y="268" width="8" height="8" rx="1" ry="1" fill="#37474f" style="stroke:none" />
      <rect x="61" y="265" width="1" height="1" fill="#ffdc65" style="stroke:none" />
      <rect x="63" y="265" width="1" height="1" fill="#ffdc65" style="stroke:none" />
      <rect x="65" y="265" width="1" height="1" fill="#ffdc65" style="stroke:none" />
      <rect x="67" y="265" width="1" height="1" fill="#ffdc65" style="stroke:none" />
      <rect x="69" y="265" width="1" height="1" fill="#ffdc65" style="stroke:none" />
      <rect x="71" y="265" width="1" height="1" fill="#ffdc65" style="stroke:none" />
      <rect x="57" y="267" width="1" height="1" fill="#ffdc65" style="stroke:none" />
      <rect x="59" y="267" width="1" height="1" fill="#ffdc65" style="stroke:none" />
      <rect x="61" y="267" width="1" height="1" fill="#ffdc65" style="stroke:none" />
      <rect x="63" y="267" width="1" height="1" fill="#ffdc65" style="stroke:none" />
      <rect x="65" y="267" width="1" height="1" fill="#ffdc65" style="stroke:none" />
      <rect x="67" y="267" width="1" height="1" fill="#ffdc65" style="stroke:none" />
      <rect x="69" y="267" width="1" height="1" fill="#ffdc65" style="stroke:none" />
      <rect x="71" y="267" width="1" height="1" fill="#ffdc65" style="stroke:none" />
      <rect x="57" y="269" width="1" height="1" fill="#ffdc65" style="stroke:none" />
      <rect x="59" y="269" width="1" height="1" fill="#ffdc65" style="stroke:none" />
      <rect x="69" y="269" width="1" height="1" fill="#ffdc65" style="stroke:none" />
      <rect x="71" y="269" width="1" height="1" fill="#ffdc65" style="stroke:none" />
      <rect x="57" y="271" width="1" height="1" fill="#ffdc65" style="stroke:none" />
      <rect x="59" y="271" width="1" height="1" fill="#ffdc65" style="stroke:none" />
      <rect x="69" y="271" width="1" height="1" fill="#ffdc65" style="stroke:none" />
      <rect x="71" y="271" width="1" height="1" fill="#ffdc65" style="stroke:none" />
      <rect x="57" y="273" width="1" height="1" fill="#ffdc65" style="stroke:none" />
      <rect x="59" y="273" width="1" height="1" fill="#ffdc65" style="stroke:none" />
      <rect x="69" y="273" width="1" height="1" fill="#ffdc65" style="stroke:none" />
      <rect x="71" y="273" width="1" height="1" fill="#ffdc65" style="stroke:none" />
      <rect x="57" y="275" width="1" height="1" fill="#ffdc65" style="stroke:none" />
      <rect x="59" y="275" width="1" height="1" fill="#ffdc65" style="stroke:none" />
      <rect x="69" y="275" width="1" height="1" fill="#ffdc65" style="stroke:none" />
      <rect x="71" y="275" width="1" height="1" fill="#ffdc65" style="stroke:none" />
      <rect x="57" y="277" width="1" height="1" fill="#ffdc65" style="stroke:none" />
      <rect x="59" y="277" width="1" height="1" fill="#ffdc65" style="stroke:none" />
      <rect x="61" y="277" width="1" height="1" fill="#ffdc65" style="stroke:none" />
      <rect x="63" y="277" width="1" height="1" fill="#ffdc65" style="stroke:none" />
      <rect x="65" y="277" width="1" height="1" fill="#ffdc65" style="stroke:none" />
      <rect x="67" y="277" width="1" height="1" fill="#ffdc65" style="stroke:none" />
      <rect x="69" y="277" width="1" height="1" fill="#ffdc65" style="stroke:none" />
      <rect x="71" y="277" width="1" height="1" fill="#ffdc65" style="stroke:none" />
      <rect x="57" y="279" width="1" height="1" fill="#ffdc65" style="stroke:none" />
      <rect x="61" y="279" width="1" height="1" fill="#ffdc65" style="stroke:none" />
      <rect x="63" y="279" width="1" height="1" fill="#ffdc65" style="stroke:none" />
      <rect x="65" y="279" width="1" height="1" fill="#ffdc65" style="stroke:none" />
      <rect x="67" y="279" width="1" height="1" fill="#ffdc65" style="stroke:none" />
      <rect x="69" y="279" width="1" height="1" fill="#ffdc65" style="stroke:none" />
      <rect x="71" y="279" width="1" height="1" fill="#ffdc65" style="stroke:none" />
      <!-- 32x32 -->
      <rect x="98" y="254" width="28" height="28" rx="2" ry="2" fill="#4bae4f" style="stroke:none" />
      <rect x="99" y="254" width="26" height="1" fill="#ffffff" opacity="0.2" style="stroke:none" />
      <rect x="99" y="281" width="26" height="1" fill="#000000" opacity="0.2" style="stroke:none" />
      <rect x="107" y="263" width="10" height="10" rx="1.5" ry="1.5" fill="#37474f" style="stroke:none" />
      <rect x="107" y="257" width="1" height="1" fill="#ffdc65" style="stroke:none" />
      <rect x="110" y="257" width="1" height="1" fill="#ffdc65" style="stroke:none" />
      <rect x="114" y="257" width="1" height="1" fill="#ffdc65" style="stroke:none" />
      <rect x="117" y="257" width="1" height="1" fill="#ffdc65" style="stroke:none" />
      <rect x="120" y="257" width="1" height="1" fill="#ffdc65" style="stroke:none" />
      <rect x="123" y="257" width="1" height="1" fill="#ffdc65" style="stroke:none" />
      <rect x="101" y="260" width="1" height="1" fill="#ffdc65" style="stroke:none" />
      <rect x="104" y="260" width="1" height="1" fill="#ffdc65" style="stroke:none" />
      <rect x="107" y="260" width="1" height="1" fill="#ffdc65" style="stroke:none" />
      <rect x="110" y="260" width="1" height="1" fill="#ffdc65" style="stroke:none" />
      <rect x="114" y="260" width="1" height="1" fill="#ffdc65" style="stroke:none" />
      <rect x="117" y="260" width="1" height="1" fill="#ffdc65" style="stroke:none" />
      <rect x="120" y="260" width="1" height="1" fill="#ffdc65" style="stroke:none" />
      <rect x="123" y="260" width="1" height="1" fill="#ffdc65" style="stroke:none" />
      <rect x="101" y="263" width="1" height="1" fill="#ffdc65" style="stroke:none" />
      <rect x="104" y="263" width="1" height="1" fill="#ffdc65" style="stroke:none" />
      <rect x="120" y="263" width="1" height="1" fill="#ffdc65" style="stroke:none" />
      <rect x="123" y="263" width="1" height="1" fill="#ffdc65" style="stroke:none" />
      <rect x="101" y="266" width="1" height="1" fill="#ffdc65" style="stroke:none" />
      <rect x="104" y="266" width="1" height="1" fill="#ffdc65" style="stroke:none" />
      <rect x="120" y="266" width="1" height="1" fill="#ffdc65" style="stroke:none" />
      <rect x="123" y="266" width="1" height="1" fill="#ffdc65" style="stroke:none" />
      <rect x="101" y="270" width="1" height="1" fill="#ffdc65" style="stroke:none" />
      <rect x="104" y="270" width="1" height="1" fill="#ffdc65" style="stroke:none" />
      <rect x="120" y="270" width="1" height="1" fill="#ffdc65" style="stroke:none" />
      <rect x="123" y="270" width="1" height="1" fill="#ffdc65" style="stroke:none" />
      <rect x="101" y="273" width="1" height="1" fill="#ffdc65" style="stroke:none" />
      <rect x="104" y="273" width="1" height="1" fill="#ffdc65" style="stroke:none" />
      <rect x="120" y="273" width="1" height="1" fill="#ffdc65" style="stroke:none" />
      <rect x="123" y="273" width="1" height="1" fill="#ffdc65" style="stroke:none" />
      <rect x="101" y="276" width="1" height="1" fill="#ffdc65" style="stroke:none" />
      <rect x="104" y="276" width="1" height="1" fill="#ffdc65" style="stroke:none" />
      <rect x="107" y="276" width="1" height="1" fill="#ffdc65" style="stroke:none" />
      <rect x="110" y="276" width="1" height="1" fill="#ffdc65" style="stroke:none" />
      <rect x="114" y="276" width="1" height="1" fill="#ffdc65" style="stroke:none" />
      <rect x="117" y="276" width="1" height="1" fill="#ffdc65" style="stroke:none" />
      <rect x="120" y="276" width="1" height="1" fill="#ffdc65" style="stroke:none" />
      <rect x="123" y="276" width="1" height="1" fill="#ffdc65" style="stroke:none" />
      <rect x="101" y="279" width="1" height="1" fill="#ffdc65" style="stroke:none" />
      <rect x="107" y="279" width="1" height="1" fill="#ffdc65" style="stroke:none" />
      <rect x="110" y="279" width="1" height="1" fill="#ffdc65" style="stroke:none" />
      <rect x="114" y="279" width="1" height="1" fill="#ffdc65" style="stroke:none" />
      <rect x="117" y="279" width="1" height="1" fill="#ffdc65" style="stroke:none" />
      <rect x="120" y="279" width="1" height="1" fill="#ffdc65" style="stroke:none" />
      <rect x="123" y="279" width="1" height="1" fill="#ffdc65" style="stroke:none" />
      <!-- 48x48 -->
      <rect x="147" y="239" width="42" height="42" rx="3" ry="3" fill="#4bae4f" style="stroke:none" />
      <rect x="148" y="239" width="40" height="1" fill="#ffffff" opacity="0.2" style="stroke:none" />
      <rect x="148" y="280" width="40" height="1" fill="#000000" opacity="0.2" style="stroke:none" />
      <rect x="160" y="252" width="16" height="16" rx="2" ry="2" fill="#37474f" style="stroke:none" />
      <rect x="160" y="244" width="2" height="2" fill="#ffdc65" style="stroke:none" />
      <rect x="164" y="244" width="2" height="2" fill="#ffdc65" style="stroke:none" />
      <rect x="170" y="244" width="2" height="2" fill="#ffdc65" style="stroke:none" />
      <rect x="174" y="244" width="2" height="2" fill="#ffdc65" style="stroke:none" />
      <rect x="178" y="244" width="2" height="2" fill="#ffdc65" style="stroke:none" />
      <rect x="182" y="244" width="2" height="2" fill="#ffdc65" style="stroke:none" />
      <rect x="152" y="248" width="2" height="2" fill="#ffdc65" style="stroke:none" />
      <rect x="156" y="248" width="2" height="2" fill="#ffdc65" style="stroke:none" />
      <rect x="160" y="248" width="2" height="2" fill="#ffdc65" style="stroke:none" />
      <rect x="164" y="248" width="2" height="2" fill="#ffdc65" style="stroke:none" />
      <rect x="170" y="248" width="2" height="2" fill="#ffdc65" style="stroke:none" />
      <rect x="174" y="248" width="2" height="2" fill="#ffdc65" style="stroke:none" />
      <rect x="178" y="248" width="2" height="2" fill="#ffdc65" style="stroke:none" />
      <rect x="182" y="248" width="2" height="2" fill="#ffdc65" style="stroke:none" />
      <rect x="152" y="252" width="2" height="2" fill="#ffdc65" style="stroke:none" />
      <rect x="156" y="252" width="2" height="2" fill="#ffdc65" style="stroke:none" />
      <rect x="178" y="252" width="2" height="2" fill="#ffdc65" style="stroke:none" />
      <rect x="182" y="252" width="2" height="2" fill="#ffdc65" style="stroke:none" />
      <rect x="152" y="256" width="2" height="2" fill="#ffdc65" style="stroke:none" />
      <rect x="156" y="256" width="2" height="2" fill="#ffdc65" style="stroke:none" />
      <rect x="178" y="256" width="2" height="2" fill="#ffdc65" style="stroke:none" />
      <rect x="182" y="256" width="2" height="2" fill="#ffdc65" style="stroke:none" />
      <rect x="152" y="262" width="2" height="2" fill="#ffdc65" style="stroke:none" />
      <rect x="156" y="262" width="2" height="2" fill="#ffdc65" style="stroke:none" />
      <rect x="178" y="262" width="2" height="2" fill="#ffdc65" style="stroke:none" />
      <rect x="182" y="262" width="2" height="2" fill="#ffdc65" style="stroke:none" />
      <rect x="152" y="266" width="2" height="2" fill="#ffdc65" style="stroke:none" />
      <rect x="156" y="266" width="2" height="2" fill="#ffdc65" style="stroke:none" />
      <rect x="178" y="266" width="2" height="2" fill="#ffdc65" style="stroke:none" />
      <rect x="182" y="266" width="2" height="2" fill="#ffdc65" style="stroke:none" />
      <rect x="152" y="270" width="2" height="2" fill="#ffdc65" style="stroke:none" />
      <rect x="156" y="270" width="2" height="2" fill="#ffdc65" style="stroke:none" />
      <rect x="160" y="270" width="2" height="2" fill="#ffdc65" style="stroke:none" />
      <rect x="164" y="270" width="2" height="2" fill="#ffdc65" style="stroke:none" />
      <rect x="170" y="270" width="2" height="2" fill="#ffdc65" style="stroke:none" />
      <rect x="174" y="270" width="2" height="2" fill="#ffdc65" style="stroke:none" />
      <rect x="178" y="270" width="2" height="2" fill="#ffdc65" style="stroke:none" />
      <rect x="182" y="270" width="2" height="2" fill="#ffdc65" style="stroke:none" />
      <rect x="152" y="274" width="2" height="2" fill="#ffdc65" style="stroke:none" />
      <rect x="160" y="274" width="2" height="2" fill="#ffdc65" style="stroke:none" />
      <rect x="164" y="274" width="2" height="2" fill="#ffdc65" style="stroke:none" />
      <rect x="170" y="274" width="2" height="2" fill="#ffdc65" style="stroke:none" />
      <rect x="174" y="274" width="2" height="2" fill="#ffdc65" style="stroke:none" />
      <rect x="178" y="274" width="2" height="2" fill="#ffdc65" style="stroke:none" />
      <rect x="182" y="274" width="2" height="2" fill="#ffdc65" style="stroke:none" />
      <!-- 512x512 -->
      <rect x="240" y="-192" width="448" height="448" rx="32" ry="32" fill="#000000" opacity="0.1" filter="url(#filter4324)" style="stroke:none" />
      <rect x="240" y="-196" width="448" height="448" rx="32" ry="32" fill="#4bae4f" style="stroke:none" />
      <path d="m 272,-198 c -17.728,0 -32,14.272 -32,32 l 0,2 c 0,-17.728 14.272,-32 32,-32 l 384,0 c 17.728,0 32,14.272 32,32 l 0,-2 c 0,-17.728 -14.272,-32 -32,-32 z" fill="#ffffff" opacity="0.2" style="stroke:none" />
      <path d="m 240,216 0,4 c 0,17.728 14.272,32 32,32 l 384,0 c 17.728,0 32,-14.272 32,-32 l 0,-4 c 0,17.728 -14.272,32 -32,32 l -384,0 c -17.728,0 -32,-14.272 -32,-32 z" fill="#000000" opacity="0.2" style="stroke:none" />
      <rect x="384" y="-52" width="160" height="160" rx="24" ry="24" fill="#37474f" style="stroke:none" />
      <circle cx="384" cy="-148" r="16" fill="#ffdc65" style="stroke:none" />
      <circle cx="432" cy="-148" r="16" fill="#ffdc65" style="stroke:none" />
      <circle cx="496" cy="-148" r="16" fill="#ffdc65" style="stroke:none" />
      <circle cx="544" cy="-148" r="16" fill="#ffdc65" style="stroke:none" />
      <circle cx="592" cy="-148" r="16" fill="#ffdc65" style="stroke:none" />
      <circle cx="640" cy="-148" r="16" fill="#ffdc65" style="stroke:none" />
      <circle cx="288" cy="-100" r="16" fill="#ffdc65" style="stroke:none" />
      <circle cx="336" cy="-100" r="16" fill="#ffdc65" style="stroke:none" />
      <circle cx="384" cy="-100" r="16" fill="#ffdc65" style="stroke:none" />
      <circle cx="432" cy="-100" r="16" fill="#ffdc65" style="stroke:none" />
      <circle cx="496" cy="-100" r="16" fill="#ffdc65" style="stroke:none" />
      <circle cx="544" cy="-100" r="16" fill="#ffdc65" style="stroke:none" />
      <circle cx="592" cy="-100" r="16" fill="#ffdc65" style="stroke:none" />
      <circle cx="640" cy="-100" r="16" fill="#ffdc65" style="stroke:none" />
      <circle cx="288" cy="-52" r="16" fill="#ffdc65" style="stroke:none" />
      <circle cx="336" cy="-52" r="16" fill="#ffdc65" style="stroke:none" />
      <circle cx="592" cy="-52" r="16" fill="#ffdc65" style="stroke:none" />
      <circle cx="640" cy="-52" r="16" fill="#ffdc65" style="stroke:none" />
      <circle cx="288" cy="-4" r="16" fill="#ffdc65" style="stroke:none" />
      <circle cx="336" cy="-4" r="16" fill="#ffdc65" style="stroke:none" />
      <circle cx="592" cy="-4" r="16" fill="#ffdc65" style="stroke:none" />
      <circle cx="640" cy="-4" r="16" fill="#ffdc65" style="stroke:none" />
      <circle cx="288" cy="60" r="16" fill="#ffdc65" style="stroke:none" />
      <circle cx="336" cy="60" r="16" fill="#ffdc65" style="stroke:none" />
      <circle cx="592" cy="60" r="16" fill="#ffdc65" style="stroke:none" />
      <circle cx="640" cy="60" r="16" fill="#ffdc65" style="stroke:none" />
      <circle cx="288" cy="108" r="16" fill="#ffdc65" style="stroke:none" />
      <circle cx="336" cy="108" r="16" fill="#ffdc65" style="stroke:none" />
      <circle cx="592" cy="108" r="16" fill="#ffdc65" style="stroke:none" />
      <circle cx="640" cy="108" r="16" fill="#ffdc65" style="stroke:none" />
      <circle cx="288" cy="156" r="16" fill="#ffdc65" style="stroke:none" />
      <circle cx="336" cy="156" r="16" fill="#ffdc65" style="stroke:none" />
      <circle cx="384" cy="156" r="16" fill="#ffdc65" style="stroke:none" />
      <circle cx="432" cy="156" r="16" fill="#ffdc65" style="stroke:none" />
      <circle cx="496" cy="156" r="16" fill="#ffdc65" style="stroke:none" />
      <circle cx="544" cy="156" r="16" fill="#ffdc65" style="stroke:none" />
      <circle cx="592" cy="156" r="16" fill="#ffdc65" style="stroke:none" />
      <circle cx="640" cy="156" r="16" fill="#ffdc65" style="stroke:none" />
      <circle cx="288" cy="204" r="16" fill="#ffdc65" style="stroke:none" />
      <circle cx="384" cy="204" r="16" fill="#ffdc65" style="stroke:none" />
      <circle cx="432" cy="204" r="16" fill="#ffdc65" style="stroke:none" />
      <circle cx="496" cy="204" r="16" fill="#ffdc65" style="stroke:none" />
      <circle cx="544" cy="204" r="16" fill="#ffdc65" style="stroke:none" />
      <circle cx="592" cy="204" r="16" fill="#ffdc65" style="stroke:none" />
      <circle cx="640" cy="204" r="16" fill="#ffdc65" style="stroke:none" />
    </g>
  </g>
</svg>
