<?xml version="1.0" encoding="UTF-8" standalone="no"?>
<svg
   xmlns:dc="http://purl.org/dc/elements/1.1/"
   xmlns:cc="http://creativecommons.org/ns#"
   xmlns:rdf="http://www.w3.org/1999/02/22-rdf-syntax-ns#"
   xmlns:svg="http://www.w3.org/2000/svg"
   xmlns="http://www.w3.org/2000/svg"
   xmlns:sodipodi="http://sodipodi.sourceforge.net/DTD/sodipodi-0.dtd"
   xmlns:inkscape="http://www.inkscape.org/namespaces/inkscape"
   inkscape:export-ydpi="90.000000"
   inkscape:export-xdpi="90.000000"
   width="736"
   height="544"
   id="svg11300"
   sodipodi:version="0.32"
   inkscape:version="0.91 r"
   sodipodi:docname="cpuid.svg"
   inkscape:output_extension="org.inkscape.output.svg.inkscape"
   version="1.0"
   style="display:inline;enable-background:new"
   inkscape:export-filename="/home/sam/paper-template.png">
  <title id="title3004">Paper Icon Theme</title>
  <sodipodi:namedview
     stroke="#ef2929"
     fill="#f57900"
     id="base"
     pagecolor="#4a4a4a"
     bordercolor="#000000"
     borderopacity="0.25490196"
     inkscape:pageopacity="0"
     inkscape:pageshadow="2"
     inkscape:zoom="1"
     inkscape:cx="309.74748"
     inkscape:cy="133.13554"
     inkscape:current-layer="layer6"
     showgrid="false"
     inkscape:grid-bbox="true"
     inkscape:document-units="px"
     inkscape:showpageshadow="false"
     inkscape:window-width="1920"
     inkscape:window-height="1023"
     inkscape:window-x="0"
     inkscape:window-y="27"
     width="400px"
     height="300px"
     inkscape:snap-nodes="true"
     inkscape:snap-bbox="true"
     gridtolerance="10000"
     inkscape:object-nodes="true"
     inkscape:snap-grids="true"
     showguides="true"
     inkscape:guide-bbox="true"
     inkscape:window-maximized="1"
     inkscape:bbox-paths="true"
     inkscape:snap-bbox-midpoints="true"
     inkscape:snap-global="true"
     inkscape:object-paths="true"
     inkscape:snap-intersection-paths="true"
     inkscape:snap-smooth-nodes="true"
     showborder="false">
    <inkscape:grid
       spacingy="1px"
       spacingx="1px"
       id="grid5883"
       type="xygrid"
       enabled="true"
       visible="true"
       empspacing="4"
       snapvisiblegridlinesonly="true" />
    <inkscape:grid
       type="xygrid"
       id="grid11592"
       empspacing="2"
       visible="true"
       enabled="false"
       spacingx="0.5px"
       spacingy="0.5px"
       color="#ff0000"
       opacity="0.1254902"
       empcolor="#ff0000"
       empopacity="0.25098039"
       snapvisiblegridlinesonly="true" />
  </sodipodi:namedview>
  <defs id="defs3">
    <filter
       inkscape:collect="always"
       style="color-interpolation-filters:sRGB"
       id="filter4324"
       x="-0.024"
       width="1.048"
       y="-0.024"
       height="1.048">
      <feGaussianBlur
         inkscape:collect="always"
         stdDeviation="4.48"
         id="feGaussianBlur4326" />
    </filter>
  </defs>
  <metadata id="metadata4">
    <rdf:RDF>
      <cc:Work rdf:about="">
        <dc:format>image/svg+xml</dc:format>
        <dc:type rdf:resource="http://purl.org/dc/dcmitype/StillImage" />
        <dc:creator>
          <cc:Agent>
            <dc:title>Sam Hewitt</dc:title>
          </cc:Agent>
        </dc:creator>
        <dc:source />
        <cc:license rdf:resource="http://creativecommons.org/licenses/by-sa/3.0/" />
        <dc:title>Paper Icon Theme Template</dc:title>
      </cc:Work>
    </rdf:RDF>
  </metadata>
  <g
     style="display:inline"
     inkscape:groupmode="layer"
     inkscape:label="Icon"
     id="layer1"
     transform="translate(0,244)">
    <g
       style="display:none"
       inkscape:label="Baseplate"
       id="layer7"
       inkscape:groupmode="layer">
      <text
         y="337.74512"
         xml:space="preserve"
         x="15.006836"
         style="font-style:normal;font-variant:normal;font-weight:normal;font-stretch:normal;font-size:18px;font-family:'DejaVu Sans';-inkscape-font-specification:'DejaVu Sans';display:inline;fill:#000000;fill-opacity:1;stroke:none;enable-background:new"
         inkscape:label="context"
         id="context"><tspan
            y="337.74512"
            x="15.006836"
            sodipodi:role="line"
            id="tspan3933">devices</tspan></text>
      <text
         y="337.74512"
         xml:space="preserve"
         x="142.48828"
         style="font-style:normal;font-variant:normal;font-weight:bold;font-stretch:normal;font-size:18px;line-height:125%;font-family:'DejaVu Sans';-inkscape-font-specification:'DejaVu Sans Bold';text-align:start;writing-mode:lr-tb;text-anchor:start;display:inline;fill:#000000;fill-opacity:1;stroke:none;enable-background:new"
         sodipodi:linespacing="125%"
         inkscape:label="icon-name"
         id="icon-name"><tspan
            y="337.74512"
            x="142.48828"
            sodipodi:role="line"
            id="tspan3937">cpuid</tspan></text>
      <rect
         style="display:inline;overflow:visible;visibility:visible;fill:#d3d7cf;fill-opacity:1;fill-rule:nonzero;stroke:none;stroke-width:2;marker:none;enable-background:accumulate"
         id="rect16x16"
         width="16"
         height="16"
         x="-32"
         y="268"
         inkscape:label="16x16"
         transform="scale(-1,1)" />
      <rect
         style="display:inline;overflow:visible;visibility:visible;fill:#d3d7cf;fill-opacity:1;fill-rule:nonzero;stroke:none;stroke-width:2;marker:none;enable-background:accumulate"
         id="rect24x24"
         width="24"
         height="24"
         x="-76"
         y="260"
         inkscape:label="24x24"
         transform="scale(-1,1)" />
      <rect
         style="display:inline;overflow:visible;visibility:visible;fill:#d3d7cf;fill-opacity:1;fill-rule:nonzero;stroke:none;stroke-width:2;marker:none;enable-background:accumulate"
         id="rect32x32"
         width="32"
         height="32"
         x="-128"
         y="252"
         inkscape:label="32x32"
         transform="scale(-1,1)" />
      <rect
         inkscape:label="48x48"
         y="236"
         x="-192"
         height="48"
         width="48"
         id="rect48x48"
         style="display:inline;overflow:visible;visibility:visible;fill:#d3d7cf;fill-opacity:1;fill-rule:nonzero;stroke:none;stroke-width:2;marker:none;enable-background:accumulate"
         transform="scale(-1,1)" />
      <rect
         style="display:inline;overflow:visible;visibility:visible;fill:#d3d7cf;fill-opacity:1;fill-rule:nonzero;stroke:none;stroke-width:2;marker:none;enable-background:accumulate"
         id="rect3951"
         width="512"
         height="512"
         x="-720"
         y="-228"
         inkscape:label="48x48"
         transform="scale(-1,1)" />
    </g>
    <g
       inkscape:groupmode="layer"
       inkscape:label="Symbols"
       id="layer6"
       style="display:inline">
      <!-- 16x16 -->
      <rect x="19" y="269" width="1" height="1" fill="#8e8e8e" style="stroke:none" />
      <rect x="22" y="269" width="1" height="1" fill="#8e8e8e" style="stroke:none" />
      <rect x="25" y="269" width="1" height="1" fill="#8e8e8e" style="stroke:none" />
      <rect x="28" y="269" width="1" height="1" fill="#8e8e8e" style="stroke:none" />
      <rect x="19" y="282" width="1" height="1" fill="#8e8e8e" style="stroke:none" />
      <rect x="22" y="282" width="1" height="1" fill="#8e8e8e" style="stroke:none" />
      <rect x="25" y="282" width="1" height="1" fill="#8e8e8e" style="stroke:none" />
      <rect x="28" y="282" width="1" height="1" fill="#8e8e8e" style="stroke:none" />
      <rect x="17" y="271" width="1" height="1" fill="#8e8e8e" style="stroke:none" />
      <rect x="17" y="274" width="1" height="1" fill="#8e8e8e" style="stroke:none" />
      <rect x="17" y="277" width="1" height="1" fill="#8e8e8e" style="stroke:none" />
      <rect x="17" y="280" width="1" height="1" fill="#8e8e8e" style="stroke:none" />
      <rect x="30" y="271" width="1" height="1" fill="#8e8e8e" style="stroke:none" />
      <rect x="30" y="274" width="1" height="1" fill="#8e8e8e" style="stroke:none" />
      <rect x="30" y="277" width="1" height="1" fill="#8e8e8e" style="stroke:none" />
      <rect x="30" y="280" width="1" height="1" fill="#8e8e8e" style="stroke:none" />
      <rect x="18" y="270" width="12" height="12" rx="1" ry="1" fill="#b7b7b7" style="stroke:none" />
      <rect x="19" y="270" width="10" height="1" fill="#ffffff" opacity="0.2" style="stroke:none" />
      <rect x="19" y="281" width="10" height="1" fill="#000000" opacity="0.2" style="stroke:none" />
      <rect x="21" y="273" width="6" height="6" fill="#d13232" style="stroke:none" />

      <!-- 24x24 -->
      <rect x="56" y="262" width="1" height="1" fill="#8e8e8e" style="stroke:none" />
      <rect x="59" y="262" width="1" height="1" fill="#8e8e8e" style="stroke:none" />
      <rect x="62" y="262" width="1" height="1" fill="#8e8e8e" style="stroke:none" />
      <rect x="65" y="262" width="1" height="1" fill="#8e8e8e" style="stroke:none" />
      <rect x="68" y="262" width="1" height="1" fill="#8e8e8e" style="stroke:none" />
      <rect x="71" y="262" width="1" height="1" fill="#8e8e8e" style="stroke:none" />
      <rect x="56" y="281" width="1" height="1" fill="#8e8e8e" style="stroke:none" />
      <rect x="59" y="281" width="1" height="1" fill="#8e8e8e" style="stroke:none" />
      <rect x="62" y="281" width="1" height="1" fill="#8e8e8e" style="stroke:none" />
      <rect x="65" y="281" width="1" height="1" fill="#8e8e8e" style="stroke:none" />
      <rect x="68" y="281" width="1" height="1" fill="#8e8e8e" style="stroke:none" />
      <rect x="71" y="281" width="1" height="1" fill="#8e8e8e" style="stroke:none" />
      <rect x="54" y="264" width="1" height="1" fill="#8e8e8e" style="stroke:none" />
      <rect x="54" y="267" width="1" height="1" fill="#8e8e8e" style="stroke:none" />
      <rect x="54" y="270" width="1" height="1" fill="#8e8e8e" style="stroke:none" />
      <rect x="54" y="273" width="1" height="1" fill="#8e8e8e" style="stroke:none" />
      <rect x="54" y="276" width="1" height="1" fill="#8e8e8e" style="stroke:none" />
      <rect x="54" y="279" width="1" height="1" fill="#8e8e8e" style="stroke:none" />
      <rect x="73" y="264" width="1" height="1" fill="#8e8e8e" style="stroke:none" />
      <rect x="73" y="267" width="1" height="1" fill="#8e8e8e" style="stroke:none" />
      <rect x="73" y="270" width="1" height="1" fill="#8e8e8e" style="stroke:none" />
      <rect x="73" y="273" width="1" height="1" fill="#8e8e8e" style="stroke:none" />
      <rect x="73" y="276" width="1" height="1" fill="#8e8e8e" style="stroke:none" />
      <rect x="73" y="279" width="1" height="1" fill="#8e8e8e" style="stroke:none" />
      <rect x="55" y="263" width="18" height="18" rx="1.5" ry="1.5" fill="#b7b7b7" style="stroke:none" />
      <rect x="56" y="263" width="16" height="1" fill="#ffffff" opacity="0.2" style="stroke:none" />
      <rect x="56" y="280" width="16" height="1" fill="#000000" opacity="0.2" style="stroke:none" />
      <rect x="59" y="267" width="10" height="10" fill="#d13232" style="stroke:none" />

      <!-- 32x32 -->
      <rect x="101" y="255" width="1" height="1" fill="#8e8e8e" style="stroke:none" />
      <rect x="104" y="255" width="1" height="1" fill="#8e8e8e" style="stroke:none" />
      <rect x="107" y="255" width="1" height="1" fill="#8e8e8e" style="stroke:none" />
      <rect x="110" y="255" width="1" height="1" fill="#8e8e8e" style="stroke:none" />
      <rect x="113" y="255" width="1" height="1" fill="#8e8e8e" style="stroke:none" />
      <rect x="116" y="255" width="1" height="1" fill="#8e8e8e" style="stroke:none" />
      <rect x="119" y="255" width="1" height="1" fill="#8e8e8e" style="stroke:none" />
      <rect x="122" y="255" width="1" height="1" fill="#8e8e8e" style="stroke:none" />
      <rect x="101" y="280" width="1" height="1" fill="#8e8e8e" style="stroke:none" />
      <rect x="104" y="280" width="1" height="1" fill="#8e8e8e" style="stroke:none" />
      <rect x="107" y="280" width="1" height="1" fill="#8e8e8e" style="stroke:none" />
      <rect x="110" y="280" width="1" height="1" fill="#8e8e8e" style="stroke:none" />
      <rect x="113" y="280" width="1" height="1" fill="#8e8e8e" style="stroke:none" />
      <rect x="116" y="280" width="1" height="1" fill="#8e8e8e" style="stroke:none" />
      <rect x="119" y="280" width="1" height="1" fill="#8e8e8e" style="stroke:none" />
      <rect x="122" y="280" width="1" height="1" fill="#8e8e8e" style="stroke:none" />
      <rect x="99" y="257" width="1" height="1" fill="#8e8e8e" style="stroke:none" />
      <rect x="99" y="260" width="1" height="1" fill="#8e8e8e" style="stroke:none" />
      <rect x="99" y="263" width="1" height="1" fill="#8e8e8e" style="stroke:none" />
      <rect x="99" y="266" width="1" height="1" fill="#8e8e8e" style="stroke:none" />
      <rect x="99" y="269" width="1" height="1" fill="#8e8e8e" style="stroke:none" />
      <rect x="99" y="272" width="1" height="1" fill="#8e8e8e" style="stroke:none" />
      <rect x="99" y="275" width="1" height="1" fill="#8e8e8e" style="stroke:none" />
      <rect x="99" y="278" width="1" height="1" fill="#8e8e8e" style="stroke:none" />
      <rect x="124" y="257" width="1" height="1" fill="#8e8e8e" style="stroke:none" />
      <rect x="124" y="260" width="1" height="1" fill="#8e8e8e" style="stroke:none" />
      <rect x="124" y="263" width="1" height="1" fill="#8e8e8e" style="stroke:none" />
      <rect x="124" y="266" width="1" height="1" fill="#8e8e8e" style="stroke:none" />
      <rect x="124" y="269" width="1" height="1" fill="#8e8e8e" style="stroke:none" />
      <rect x="124" y="272" width="1" height="1" fill="#8e8e8e" style="stroke:none" />
      <rect x="124" y="275" width="1" height="1" fill="#8e8e8e" style="stroke:none" />
      <rect x="124" y="278" width="1" height="1" fill="#8e8e8e" style="stroke:none" />
      <rect x="100" y="256" width="24" height="24" rx="2" ry="2" fill="#b7b7b7" style="stroke:none" />
      <rect x="101" y="256" width="22" height="1" fill="#ffffff" opacity="0.2" style="stroke:none" />
      <rect x="101" y="279" width="22" height="1" fill="#000000" opacity="0.2" style="stroke:none" />
      <rect x="103" y="259" width="18" height="18" fill="#d13232" style="stroke:none" />

      <!-- 48x48 -->
      <rect x="151.5" y="240.5" width="1.5" height="1.5" fill="#8e8e8e" style="stroke:none" />
      <rect x="156" y="240.5" width="1.5" height="1.5" fill="#8e8e8e" style="stroke:none" />
      <rect x="160.5" y="240.5" width="1.5" height="1.5" fill="#8e8e8e" style="stroke:none" />
      <rect x="165" y="240.5" width="1.5" height="1.5" fill="#8e8e8e" style="stroke:none" />
      <rect x="169.5" y="240.5" width="1.5" height="1.5" fill="#8e8e8e" style="stroke:none" />
      <rect x="174" y="240.5" width="1.5" height="1.5" fill="#8e8e8e" style="stroke:none" />
      <rect x="178.5" y="240.5" width="1.5" height="1.5" fill="#8e8e8e" style="stroke:none" />
      <rect x="183" y="240.5" width="1.5" height="1.5" fill="#8e8e8e" style="stroke:none" />
      <rect x="151.5" y="278" width="1.5" height="1.5" fill="#8e8e8e" style="stroke:none" />
      <rect x="156" y="278" width="1.5" height="1.5" fill="#8e8e8e" style="stroke:none" />
      <rect x="160.5" y="278" width="1.5" height="1.5" fill="#8e8e8e" style="stroke:none" />
      <rect x="165" y="278" width="1.5" height="1.5" fill="#8e8e8e" style="stroke:none" />
      <rect x="169.5" y="278" width="1.5" height="1.5" fill="#8e8e8e" style="stroke:none" />
      <rect x="174" y="278" width="1.5" height="1.5" fill="#8e8e8e" style="stroke:none" />
      <rect x="178.5" y="278" width="1.5" height="1.5" fill="#8e8e8e" style="stroke:none" />
      <rect x="183" y="278" width="1.5" height="1.5" fill="#8e8e8e" style="stroke:none" />
      <rect x="148.5" y="243.5" width="1.5" height="1.5" fill="#8e8e8e" style="stroke:none" />
      <rect x="148.5" y="248" width="1.5" height="1.5" fill="#8e8e8e" style="stroke:none" />
      <rect x="148.5" y="252.5" width="1.5" height="1.5" fill="#8e8e8e" style="stroke:none" />
      <rect x="148.5" y="257" width="1.5" height="1.5" fill="#8e8e8e" style="stroke:none" />
      <rect x="148.5" y="261.5" width="1.5" height="1.5" fill="#8e8e8e" style="stroke:none" />
      <rect x="148.5" y="266" width="1.5" height="1.5" fill="#8e8e8e" style="stroke:none" />
      <rect x="148.5" y="270.5" width="1.5" height="1.5" fill="#8e8e8e" style="stroke:none" />
      <rect x="148.5" y="275" width="1.5" height="1.5" fill="#8e8e8e" style="stroke:none" />
      <rect x="186" y="243.5" width="1.5" height="1.5" fill="#8e8e8e" style="stroke:none" />
      <rect x="186" y="248" width="1.5" height="1.5" fill="#8e8e8e" style="stroke:none" />
      <rect x="186" y="252.5" width="1.5" height="1.5" fill="#8e8e8e" style="stroke:none" />
      <rect x="186" y="257" width="1.5" height="1.5" fill="#8e8e8e" style="stroke:none" />
      <rect x="186" y="261.5" width="1.5" height="1.5" fill="#8e8e8e" style="stroke:none" />
      <rect x="186" y="266" width="1.5" height="1.5" fill="#8e8e8e" style="stroke:none" />
      <rect x="186" y="270.5" width="1.5" height="1.5" fill="#8e8e8e" style="stroke:none" />
      <rect x="186" y="275" width="1.5" height="1.5" fill="#8e8e8e" style="stroke:none" />
      <rect x="150" y="242" width="36" height="36" rx="3" ry="3" fill="#b7b7b7" style="stroke:none" />
      <rect x="151" y="242" width="34" height="1" fill="#ffffff" opacity="0.2" style="stroke:none" />
      <rect x="151" y="277" width="34" height="1" fill="#000000" opacity="0.2" style="stroke:none" />
      <rect x="155" y="247" width="26" height="26" fill="#d13232" style="stroke:none" />

      <!-- 512x512 -->
      <rect x="288" y="-180" width="16" height="16" fill="#8e8e8e" style="stroke:none" />
      <rect x="336" y="-180" width="16" height="16" fill="#8e8e8e" style="stroke:none" />
      <rect x="384" y="-180" width="16" height="16" fill="#8e8e8e" style="stroke:none" />
      <rect x="432" y="-180" width="16" height="16" fill="#8e8e8e" style="stroke:none" />
      <rect x="480" y="-180" width="16" height="16" fill="#8e8e8e" style="stroke:none" />
      <rect x="528" y="-180" width="16" height="16" fill="#8e8e8e" style="stroke:none" />
      <rect x="576" y="-180" width="16" height="16" fill="#8e8e8e" style="stroke:none" />
      <rect x="624" y="-180" width="16" height="16" fill="#8e8e8e" style="stroke:none" />
      <rect x="288" y="220" width="16" height="16" fill="#8e8e8e" style="stroke:none" />
      <rect x="336" y="220" width="16" height="16" fill="#8e8e8e" style="stroke:none" />
      <rect x="384" y="220" width="16" height="16" fill="#8e8e8e" style="stroke:none" />
      <rect x="432" y="220" width="16" height="16" fill="#8e8e8e" style="stroke:none" />
      <rect x="480" y="220" width="16" height="16" fill="#8e8e8e" style="stroke:none" />
      <rect x="528" y="220" width="16" height="16" fill="#8e8e8e" style="stroke:none" />
      <rect x="576" y="220" width="16" height="16" fill="#8e8e8e" style="stroke:none" />
      <rect x="624" y="220" width="16" height="16" fill="#8e8e8e" style="stroke:none" />
      <rect x="256" y="-148" width="16" height="16" fill="#8e8e8e" style="stroke:none" />
      <rect x="256" y="-100" width="16" height="16" fill="#8e8e8e" style="stroke:none" />
      <rect x="256" y="-52" width="16" height="16" fill="#8e8e8e" style="stroke:none" />
      <rect x="256" y="-4" width="16" height="16" fill="#8e8e8e" style="stroke:none" />
      <rect x="256" y="44" width="16" height="16" fill="#8e8e8e" style="stroke:none" />
      <rect x="256" y="92" width="16" height="16" fill="#8e8e8e" style="stroke:none" />
      <rect x="256" y="140" width="16" height="16" fill="#8e8e8e" style="stroke:none" />
      <rect x="256" y="188" width="16" height="16" fill="#8e8e8e" style="stroke:none" />
      <rect x="656" y="-148" width="16" height="16" fill="#8e8e8e" style="stroke:none" />
      <rect x="656" y="-100" width="16" height="16" fill="#8e8e8e" style="stroke:none" />
      <rect x="656" y="-52" width="16" height="16" fill="#8e8e8e" style="stroke:none" />
      <rect x="656" y="-4" width="16" height="16" fill="#8e8e8e" style="stroke:none" />
      <rect x="656" y="44" width="16" height="16" fill="#8e8e8e" style="stroke:none" />
      <rect x="656" y="92" width="16" height="16" fill="#8e8e8e" style="stroke:none" />
      <rect x="656" y="140" width="16" height="16" fill="#8e8e8e" style="stroke:none" />
      <rect x="656" y="188" width="16" height="16" fill="#8e8e8e" style="stroke:none" />
      <rect x="272" y="-160" width="384" height="384" rx="24" ry="24" fill="#000000" opacity="0.1" filter="url(#filter4324)" style="stroke:none" />
      <rect x="272" y="-164" width="384" height="384" rx="24" ry="24" fill="#b7b7b7" style="stroke:none" />
      <path d="M 296,-164 C 282.7,-164 272,-153.3 272,-140 L 272,-138 C 272,-151.3 282.7,-162 296,-162 L 632,-162 C 645.3,-162 656,-151.3 656,-138 L 656,-140 C 656,-153.3 645.3,-164 632,-164 Z" fill="#ffffff" opacity="0.2" style="stroke:none" />
      <path d="M 272,196 L 272,200 C 272,213.3 282.7,224 296,224 L 632,224 C 645.3,224 656,213.3 656,200 L 656,196 C 656,209.3 645.3,220 632,220 L 296,220 C 282.7,220 272,209.3 272,196 Z" fill="#000000" opacity="0.2" style="stroke:none" />
      <rect x="320" y="-116" width="288" height="288" rx="16" ry="16" fill="#d13232" style="stroke:none" />
    </g>
  </g>
</svg>
