<?xml version="1.0" encoding="UTF-8" standalone="no"?>
<!-- Created with Inkscape (http://www.inkscape.org/) -->

<svg
   xmlns:osb="http://www.openswatchbook.org/uri/2009/osb"
   xmlns:dc="http://purl.org/dc/elements/1.1/"
   xmlns:cc="http://creativecommons.org/ns#"
   xmlns:rdf="http://www.w3.org/1999/02/22-rdf-syntax-ns#"
   xmlns:svg="http://www.w3.org/2000/svg"
   xmlns="http://www.w3.org/2000/svg"
   xmlns:xlink="http://www.w3.org/1999/xlink"
   xmlns:sodipodi="http://sodipodi.sourceforge.net/DTD/sodipodi-0.dtd"
   xmlns:inkscape="http://www.inkscape.org/namespaces/inkscape"
   inkscape:export-ydpi="90.000000"
   inkscape:export-xdpi="90.000000"
   width="736"
   height="544"
   id="svg11300"
   sodipodi:version="0.32"
   inkscape:version="0.91 r"
   sodipodi:docname="driver.svg"
   inkscape:output_extension="org.inkscape.output.svg.inkscape"
   version="1.0"
   style="display:inline;enable-background:new"
   inkscape:export-filename="/home/sam/paper-template.png">
  <title
     id="title3004">Paper Icon Theme</title>
  <sodipodi:namedview
     stroke="#ef2929"
     fill="#f57900"
     id="base"
     pagecolor="#474747"
     bordercolor="#666666"
     borderopacity="0.25490196"
     inkscape:pageopacity="0"
     inkscape:pageshadow="2"
     inkscape:zoom="1"
     inkscape:cx="113.63715"
     inkscape:cy="69.576197"
     inkscape:current-layer="layer7"
     showgrid="false"
     inkscape:grid-bbox="true"
     inkscape:document-units="px"
     inkscape:showpageshadow="false"
     inkscape:window-width="1920"
     inkscape:window-height="1023"
     inkscape:window-x="0"
     inkscape:window-y="27"
     width="400px"
     height="300px"
     inkscape:snap-nodes="true"
     inkscape:snap-bbox="true"
     gridtolerance="10000"
     inkscape:object-nodes="true"
     inkscape:snap-grids="true"
     showguides="false"
     inkscape:guide-bbox="true"
     inkscape:window-maximized="1"
     inkscape:bbox-nodes="true"
     inkscape:snap-bbox-edge-midpoints="true"
     inkscape:snap-bbox-midpoints="true">
    <inkscape:grid
       spacingy="1px"
       spacingx="1px"
       id="grid5883"
       type="xygrid"
       enabled="true"
       visible="true"
       empspacing="4"
       snapvisiblegridlinesonly="true" />
    <inkscape:grid
       type="xygrid"
       id="grid11592"
       empspacing="2"
       visible="true"
       enabled="false"
       spacingx="0.5px"
       spacingy="0.5px"
       color="#ff0000"
       opacity="0.1254902"
       empcolor="#ff0000"
       empopacity="0.25098039"
       snapvisiblegridlinesonly="true" />
  </sodipodi:namedview>
  <defs
     id="defs3" />
  <metadata
     id="metadata4">
    <rdf:RDF>
      <cc:Work
         rdf:about="">
        <dc:format>image/svg+xml</dc:format>
        <dc:type
           rdf:resource="http://purl.org/dc/dcmitype/StillImage" />
        <dc:creator>
          <cc:Agent>
            <dc:title>Sam Hewitt</dc:title>
          </cc:Agent>
        </dc:creator>
        <dc:source />
        <cc:license
           rdf:resource="http://creativecommons.org/licenses/by-sa/3.0/" />
        <dc:title>Paper Icon Theme</dc:title>
        <dc:subject>
          <rdf:Bag />
        </dc:subject>
        <dc:date />
        <dc:rights>
          <cc:Agent>
            <dc:title />
          </cc:Agent>
        </dc:rights>
        <dc:publisher>
          <cc:Agent>
            <dc:title />
          </cc:Agent>
        </dc:publisher>
        <dc:identifier />
        <dc:relation />
        <dc:language />
        <dc:coverage />
        <dc:description />
        <dc:contributor>
          <cc:Agent>
            <dc:title />
          </cc:Agent>
        </dc:contributor>
      </cc:Work>
      <cc:Work
         rdf:about="">
        <dc:format>image/svg+xml</dc:format>
        <dc:type
           rdf:resource="http://purl.org/dc/dcmitype/StillImage" />
      </cc:Work>
      <cc:License
         rdf:about="http://creativecommons.org/licenses/by-sa/3.0/">
        <cc:permits
           rdf:resource="http://creativecommons.org/ns#Reproduction" />
        <cc:permits
           rdf:resource="http://creativecommons.org/ns#Distribution" />
        <cc:requires
           rdf:resource="http://creativecommons.org/ns#Notice" />
        <cc:requires
           rdf:resource="http://creativecommons.org/ns#Attribution" />
        <cc:permits
           rdf:resource="http://creativecommons.org/ns#DerivativeWorks" />
        <cc:requires
           rdf:resource="http://creativecommons.org/ns#ShareAlike" />
      </cc:License>
    </rdf:RDF>
  </metadata>
  <g
     style="display:inline"
     inkscape:groupmode="layer"
     inkscape:label="Icon"
     id="layer1"
     transform="translate(0,244)">
    <g
       style="display:none"
       inkscape:label="Baseplate"
       id="layer7"
       inkscape:groupmode="layer">
      <rect
         style="display:inline;overflow:visible;visibility:visible;fill:#e9e9e9;fill-opacity:1;fill-rule:nonzero;stroke:none;stroke-width:2;marker:none;enable-background:accumulate"
         id="rect3951"
         width="512"
         height="512"
         x="-720"
         y="-228"
         inkscape:label="48x48"
         transform="scale(-1,1)" />
      <text
         y="332.48523"
         xml:space="preserve"
         x="15.006836"
         style="font-style:normal;font-variant:normal;font-weight:normal;font-stretch:normal;font-size:18px;font-family:'DejaVu Sans';-inkscape-font-specification:'DejaVu Sans';display:inline;fill:#000000;fill-opacity:1;stroke:none;enable-background:new"
         inkscape:label="context"
         id="context"><tspan
           style="font-style:normal;font-variant:normal;font-weight:normal;font-stretch:normal;font-family:'DejaVu Sans';-inkscape-font-specification:'DejaVu Sans'"
           y="332.48523"
           x="15.006836"
           sodipodi:role="line"
           id="tspan3933">actions</tspan></text>
      <text
         y="332.48523"
         xml:space="preserve"
         x="142.48828"
         style="font-style:normal;font-variant:normal;font-weight:bold;font-stretch:normal;font-size:18px;line-height:125%;font-family:'DejaVu Sans';-inkscape-font-specification:'DejaVu Sans Bold';text-align:start;writing-mode:lr-tb;text-anchor:start;display:inline;fill:#000000;fill-opacity:1;stroke:none;enable-background:new"
         sodipodi:linespacing="125%"
         inkscape:label="icon-name"
         id="icon-name"><tspan
           style="font-style:normal;font-variant:normal;font-weight:bold;font-stretch:normal;font-size:18px;font-family:'DejaVu Sans';-inkscape-font-specification:'DejaVu Sans Bold'"
           y="332.48523"
           x="142.48828"
           sodipodi:role="line"
           id="tspan3937">driver</tspan></text>
      <rect
         style="display:inline;overflow:visible;visibility:visible;fill:#e9e9e9;fill-opacity:1;fill-rule:nonzero;stroke:none;stroke-width:2;marker:none;enable-background:accumulate"
         id="rect16x16"
         width="16"
         height="16"
         x="-32"
         y="268"
         inkscape:label="16x16"
         transform="scale(-1,1)" />
      <rect
         style="display:inline;overflow:visible;visibility:visible;fill:#e9e9e9;fill-opacity:1;fill-rule:nonzero;stroke:none;stroke-width:2;marker:none;enable-background:accumulate"
         id="rect24x24"
         width="24"
         height="24"
         x="-76"
         y="260"
         inkscape:label="24x24"
         transform="scale(-1,1)" />
      <rect
         style="display:inline;overflow:visible;visibility:visible;fill:#e9e9e9;fill-opacity:1;fill-rule:nonzero;stroke:none;stroke-width:2;marker:none;enable-background:accumulate"
         id="rect32x32"
         width="32"
         height="32"
         x="-128"
         y="252"
         inkscape:label="32x32"
         transform="scale(-1,1)" />
      <rect
         inkscape:label="48x48"
         y="236"
         x="-192"
         height="48"
         width="48"
         id="rect48x48"
         style="display:inline;overflow:visible;visibility:visible;fill:#e9e9e9;fill-opacity:1;fill-rule:nonzero;stroke:none;stroke-width:2;marker:none;enable-background:accumulate"
         transform="scale(-1,1)" />
    </g>
    <g
       inkscape:groupmode="layer"
       id="layer6"
       inkscape:label="Symbols"
       style="display:inline">
      <g
         id="driver-16"
         transform="matrix(0.25,0,0,0.25,16,268)">
        <path
           style="opacity:0.2"
           d="M 31.911459,37.002048 A 1.7779555,1.6924059 0 0 0 31.125,37.218535 L 21.404514,42.44563 18.026042,41.992825 A 1.7779555,1.6924059 0 0 0 16,43.668536 l 0,5.261798 a 1.7779555,1.6924059 0 0 0 0.842014,1.439393 l 14.222222,8.376903 a 1.7779555,1.6924059 0 0 0 1.871528,0 L 47.157986,50.369727 A 1.7779555,1.6924059 0 0 0 48,48.930334 l 0,-5.770791 a 1.7779555,1.6924059 0 0 0 -2.460069,-1.561684 l -3.078126,1.216296 -9.532985,-5.56422 a 1.7779555,1.6924059 0 0 0 -1.017361,-0.247887 z" />
        <path
           style="fill:#986b4c"
           d="M 31.911459,36.002048 A 1.7779555,1.6924059 0 0 0 31.125,36.218535 L 21.404514,41.44563 18.026042,40.992825 A 1.7779555,1.6924059 0 0 0 16,42.668536 l 0,5.261798 a 1.7779555,1.6924059 0 0 0 0.842014,1.439393 l 14.222222,8.376903 a 1.7779555,1.6924059 0 0 0 1.871528,0 L 47.157986,49.369727 A 1.7779555,1.6924059 0 0 0 48,47.930334 l 0,-5.770791 a 1.7779555,1.6924059 0 0 0 -2.460069,-1.561684 l -3.078126,1.216296 -9.532985,-5.56422 a 1.7779555,1.6924059 0 0 0 -1.017361,-0.247887 z" />
        <path
           style="opacity:0.2"
           d="M 49,27 32,37 15,27 32,17 Z" />
        <path
           style="opacity:0.2"
           d="M 20,7 4,18 15,27 4,36 20,47 32,37 44,46.667969 60,36 49,27 60,18 44,7 32,17 20,7 Z" />
        <path
           style="fill:#bf9d81"
           d="M 20 6 L 4 17 L 15 26 L 4 35 L 20 46 L 32 36 L 44 45.667969 L 60 35 L 49 26 L 60 17 L 44 6 L 32 16 L 20 6 z" />
        <path
           style="opacity:0.2"
           d="M 49,27 32,37 15,27 32,17 Z" />
        <path
           style="fill:#ffffff"
           d="M 49,26 32,36 15,26 32,16 Z" />
        <path
           style="fill:#ffffff;opacity:0.2"
           d="M 20 6 L 4 17 L 4.6640625 17.542969 L 20 7 L 32 17 L 44 7 L 59.335938 17.542969 L 60 17 L 44 6 L 32 16 L 20 6 z M 14.388672 26.5 L 4 35 L 4.6640625 35.457031 L 15 27 L 14.388672 26.5 z M 49.611328 26.5 L 49 27 L 59.326172 35.449219 L 60 35 L 49.611328 26.5 z" />
      </g>
      <g
         id="driver-24"
         transform="matrix(0.375,0,0,0.375,52,260)">
        <path
           style="opacity:0.2"
           d="M 31.911459,37.002048 A 1.7779555,1.6924059 0 0 0 31.125,37.218535 L 21.404514,42.44563 18.026042,41.992825 A 1.7779555,1.6924059 0 0 0 16,43.668536 l 0,5.261798 a 1.7779555,1.6924059 0 0 0 0.842014,1.439393 l 14.222222,8.376903 a 1.7779555,1.6924059 0 0 0 1.871528,0 L 47.157986,50.369727 A 1.7779555,1.6924059 0 0 0 48,48.930334 l 0,-5.770791 a 1.7779555,1.6924059 0 0 0 -2.460069,-1.561684 l -3.078126,1.216296 -9.532985,-5.56422 a 1.7779555,1.6924059 0 0 0 -1.017361,-0.247887 z" />
        <path
           style="fill:#986b4c"
           d="M 31.911459,36.002048 A 1.7779555,1.6924059 0 0 0 31.125,36.218535 L 21.404514,41.44563 18.026042,40.992825 A 1.7779555,1.6924059 0 0 0 16,42.668536 l 0,5.261798 a 1.7779555,1.6924059 0 0 0 0.842014,1.439393 l 14.222222,8.376903 a 1.7779555,1.6924059 0 0 0 1.871528,0 L 47.157986,49.369727 A 1.7779555,1.6924059 0 0 0 48,47.930334 l 0,-5.770791 a 1.7779555,1.6924059 0 0 0 -2.460069,-1.561684 l -3.078126,1.216296 -9.532985,-5.56422 a 1.7779555,1.6924059 0 0 0 -1.017361,-0.247887 z" />
        <path
           style="opacity:0.2"
           d="M 49,27 32,37 15,27 32,17 Z" />
        <path
           style="opacity:0.2"
           d="M 20,7 4,18 15,27 4,36 20,47 32,37 44,46.667969 60,36 49,27 60,18 44,7 32,17 20,7 Z" />
        <path
           style="fill:#bf9d81"
           d="M 20 6 L 4 17 L 15 26 L 4 35 L 20 46 L 32 36 L 44 45.667969 L 60 35 L 49 26 L 60 17 L 44 6 L 32 16 L 20 6 z" />
        <path
           style="opacity:0.2"
           d="M 49,27 32,37 15,27 32,17 Z" />
        <path
           style="fill:#ffffff"
           d="M 49,26 32,36 15,26 32,16 Z" />
        <path
           style="fill:#ffffff;opacity:0.2"
           d="M 20 6 L 4 17 L 4.6640625 17.542969 L 20 7 L 32 17 L 44 7 L 59.335938 17.542969 L 60 17 L 44 6 L 32 16 L 20 6 z M 14.388672 26.5 L 4 35 L 4.6640625 35.457031 L 15 27 L 14.388672 26.5 z M 49.611328 26.5 L 49 27 L 59.326172 35.449219 L 60 35 L 49.611328 26.5 z" />
      </g>
      <g
         id="driver-32"
         transform="matrix(0.5,0,0,0.5,96,252)">
        <path
           style="opacity:0.2"
           d="M 31.911459,37.002048 A 1.7779555,1.6924059 0 0 0 31.125,37.218535 L 21.404514,42.44563 18.026042,41.992825 A 1.7779555,1.6924059 0 0 0 16,43.668536 l 0,5.261798 a 1.7779555,1.6924059 0 0 0 0.842014,1.439393 l 14.222222,8.376903 a 1.7779555,1.6924059 0 0 0 1.871528,0 L 47.157986,50.369727 A 1.7779555,1.6924059 0 0 0 48,48.930334 l 0,-5.770791 a 1.7779555,1.6924059 0 0 0 -2.460069,-1.561684 l -3.078126,1.216296 -9.532985,-5.56422 a 1.7779555,1.6924059 0 0 0 -1.017361,-0.247887 z" />
        <path
           style="fill:#986b4c"
           d="M 31.911459,36.002048 A 1.7779555,1.6924059 0 0 0 31.125,36.218535 L 21.404514,41.44563 18.026042,40.992825 A 1.7779555,1.6924059 0 0 0 16,42.668536 l 0,5.261798 a 1.7779555,1.6924059 0 0 0 0.842014,1.439393 l 14.222222,8.376903 a 1.7779555,1.6924059 0 0 0 1.871528,0 L 47.157986,49.369727 A 1.7779555,1.6924059 0 0 0 48,47.930334 l 0,-5.770791 a 1.7779555,1.6924059 0 0 0 -2.460069,-1.561684 l -3.078126,1.216296 -9.532985,-5.56422 a 1.7779555,1.6924059 0 0 0 -1.017361,-0.247887 z" />
        <path
           style="opacity:0.2"
           d="M 49,27 32,37 15,27 32,17 Z" />
        <path
           style="opacity:0.2"
           d="M 20,7 4,18 15,27 4,36 20,47 32,37 44,46.667969 60,36 49,27 60,18 44,7 32,17 20,7 Z" />
        <path
           style="fill:#bf9d81"
           d="M 20 6 L 4 17 L 15 26 L 4 35 L 20 46 L 32 36 L 44 45.667969 L 60 35 L 49 26 L 60 17 L 44 6 L 32 16 L 20 6 z" />
        <path
           style="opacity:0.2"
           d="M 49,27 32,37 15,27 32,17 Z" />
        <path
           style="fill:#ffffff"
           d="M 49,26 32,36 15,26 32,16 Z" />
        <path
           style="fill:#ffffff;opacity:0.2"
           d="M 20 6 L 4 17 L 4.6640625 17.542969 L 20 7 L 32 17 L 44 7 L 59.335938 17.542969 L 60 17 L 44 6 L 32 16 L 20 6 z M 14.388672 26.5 L 4 35 L 4.6640625 35.457031 L 15 27 L 14.388672 26.5 z M 49.611328 26.5 L 49 27 L 59.326172 35.449219 L 60 35 L 49.611328 26.5 z" />
      </g>
      <g
         id="driver-48"
         transform="matrix(0.75,0,0,0.75,144,236)">
        <path
           style="opacity:0.2"
           d="M 31.911459,37.002048 A 1.7779555,1.6924059 0 0 0 31.125,37.218535 L 21.404514,42.44563 18.026042,41.992825 A 1.7779555,1.6924059 0 0 0 16,43.668536 l 0,5.261798 a 1.7779555,1.6924059 0 0 0 0.842014,1.439393 l 14.222222,8.376903 a 1.7779555,1.6924059 0 0 0 1.871528,0 L 47.157986,50.369727 A 1.7779555,1.6924059 0 0 0 48,48.930334 l 0,-5.770791 a 1.7779555,1.6924059 0 0 0 -2.460069,-1.561684 l -3.078126,1.216296 -9.532985,-5.56422 a 1.7779555,1.6924059 0 0 0 -1.017361,-0.247887 z" />
        <path
           style="fill:#986b4c"
           d="M 31.911459,36.002048 A 1.7779555,1.6924059 0 0 0 31.125,36.218535 L 21.404514,41.44563 18.026042,40.992825 A 1.7779555,1.6924059 0 0 0 16,42.668536 l 0,5.261798 a 1.7779555,1.6924059 0 0 0 0.842014,1.439393 l 14.222222,8.376903 a 1.7779555,1.6924059 0 0 0 1.871528,0 L 47.157986,49.369727 A 1.7779555,1.6924059 0 0 0 48,47.930334 l 0,-5.770791 a 1.7779555,1.6924059 0 0 0 -2.460069,-1.561684 l -3.078126,1.216296 -9.532985,-5.56422 a 1.7779555,1.6924059 0 0 0 -1.017361,-0.247887 z" />
        <path
           style="opacity:0.2"
           d="M 49,27 32,37 15,27 32,17 Z" />
        <path
           style="opacity:0.2"
           d="M 20,7 4,18 15,27 4,36 20,47 32,37 44,46.667969 60,36 49,27 60,18 44,7 32,17 20,7 Z" />
        <path
           style="fill:#bf9d81"
           d="M 20 6 L 4 17 L 15 26 L 4 35 L 20 46 L 32 36 L 44 45.667969 L 60 35 L 49 26 L 60 17 L 44 6 L 32 16 L 20 6 z" />
        <path
           style="opacity:0.2"
           d="M 49,27 32,37 15,27 32,17 Z" />
        <path
           style="fill:#ffffff"
           d="M 49,26 32,36 15,26 32,16 Z" />
        <path
           style="fill:#ffffff;opacity:0.2"
           d="M 20 6 L 4 17 L 4.6640625 17.542969 L 20 7 L 32 17 L 44 7 L 59.335938 17.542969 L 60 17 L 44 6 L 32 16 L 20 6 z M 14.388672 26.5 L 4 35 L 4.6640625 35.457031 L 15 27 L 14.388672 26.5 z M 49.611328 26.5 L 49 27 L 59.326172 35.449219 L 60 35 L 49.611328 26.5 z" />
      </g>
      <g
         id="driver-512"
         transform="matrix(8,0,0,8,208,-228)">
        <path
           style="opacity:0.2"
           d="M 31.911459,37.002048 A 1.7779555,1.6924059 0 0 0 31.125,37.218535 L 21.404514,42.44563 18.026042,41.992825 A 1.7779555,1.6924059 0 0 0 16,43.668536 l 0,5.261798 a 1.7779555,1.6924059 0 0 0 0.842014,1.439393 l 14.222222,8.376903 a 1.7779555,1.6924059 0 0 0 1.871528,0 L 47.157986,50.369727 A 1.7779555,1.6924059 0 0 0 48,48.930334 l 0,-5.770791 a 1.7779555,1.6924059 0 0 0 -2.460069,-1.561684 l -3.078126,1.216296 -9.532985,-5.56422 a 1.7779555,1.6924059 0 0 0 -1.017361,-0.247887 z" />
        <path
           style="fill:#986b4c"
           d="M 31.911459,36.002048 A 1.7779555,1.6924059 0 0 0 31.125,36.218535 L 21.404514,41.44563 18.026042,40.992825 A 1.7779555,1.6924059 0 0 0 16,42.668536 l 0,5.261798 a 1.7779555,1.6924059 0 0 0 0.842014,1.439393 l 14.222222,8.376903 a 1.7779555,1.6924059 0 0 0 1.871528,0 L 47.157986,49.369727 A 1.7779555,1.6924059 0 0 0 48,47.930334 l 0,-5.770791 a 1.7779555,1.6924059 0 0 0 -2.460069,-1.561684 l -3.078126,1.216296 -9.532985,-5.56422 a 1.7779555,1.6924059 0 0 0 -1.017361,-0.247887 z" />
        <path
           style="opacity:0.2"
           d="M 49,27 32,37 15,27 32,17 Z" />
        <path
           style="opacity:0.2"
           d="M 20,7 4,18 15,27 4,36 20,47 32,37 44,46.667969 60,36 49,27 60,18 44,7 32,17 20,7 Z" />
        <path
           style="fill:#bf9d81"
           d="M 20 6 L 4 17 L 15 26 L 4 35 L 20 46 L 32 36 L 44 45.667969 L 60 35 L 49 26 L 60 17 L 44 6 L 32 16 L 20 6 z" />
        <path
           style="opacity:0.2"
           d="M 49,27 32,37 15,27 32,17 Z" />
        <path
           style="fill:#ffffff"
           d="M 49,26 32,36 15,26 32,16 Z" />
        <path
           style="fill:#ffffff;opacity:0.2"
           d="M 20 6 L 4 17 L 4.6640625 17.542969 L 20 7 L 32 17 L 44 7 L 59.335938 17.542969 L 60 17 L 44 6 L 32 16 L 20 6 z M 14.388672 26.5 L 4 35 L 4.6640625 35.457031 L 15 27 L 14.388672 26.5 z M 49.611328 26.5 L 49 27 L 59.326172 35.449219 L 60 35 L 49.611328 26.5 z" />
      </g>
    </g>
  </g>
</svg>
