<?xml version='1.0' encoding='utf-8'?>
<svg xmlns="http://www.w3.org/2000/svg" xmlns:cc="http://creativecommons.org/ns#" xmlns:dc="http://purl.org/dc/elements/1.1/" xmlns:inkscape="http://www.inkscape.org/namespaces/inkscape" xmlns:rdf="http://www.w3.org/1999/02/22-rdf-syntax-ns#" xmlns:sodipodi="http://sodipodi.sourceforge.net/DTD/sodipodi-0.dtd" inkscape:export-ydpi="90.000000" inkscape:export-xdpi="90.000000" width="736" height="544" id="svg11300" sodipodi:version="0.32" inkscape:version="0.91 r13725" sodipodi:docname="gpu.svg" inkscape:output_extension="org.inkscape.output.svg.inkscape" version="1.0" style="display:inline;enable-background:new" inkscape:export-filename="/home/sam/paper-template.png">
  <title id="title3004">Paper Icon Theme</title>
  <sodipodi:namedview stroke="#ef2929" fill="#f57900" id="base" pagecolor="#6b6b6b" bordercolor="#000000" borderopacity="0.25490196" inkscape:pageopacity="0" inkscape:pageshadow="2" inkscape:zoom="1" inkscape:cx="70.85594" inkscape:cy="153.01827" inkscape:current-layer="layer7" showgrid="false" inkscape:grid-bbox="true" inkscape:document-units="px" inkscape:showpageshadow="false" inkscape:window-width="1366" inkscape:window-height="704" inkscape:window-x="0" inkscape:window-y="27" width="400px" height="300px" inkscape:snap-nodes="true" inkscape:snap-bbox="true" gridtolerance="10000" inkscape:object-nodes="true" inkscape:snap-grids="true" showguides="true" inkscape:guide-bbox="true" inkscape:window-maximized="1" inkscape:bbox-paths="true" inkscape:snap-bbox-midpoints="true" inkscape:snap-global="true" inkscape:object-paths="true" inkscape:snap-intersection-paths="true" inkscape:snap-smooth-nodes="true">
    <inkscape:grid spacingy="1px" spacingx="1px" id="grid5883" type="xygrid" enabled="true" visible="true" empspacing="4" snapvisiblegridlinesonly="true" />
    <inkscape:grid type="xygrid" id="grid11592" empspacing="2" visible="true" enabled="false" spacingx="0.5px" spacingy="0.5px" color="#ff0000" opacity="0.1254902" empcolor="#ff0000" empopacity="0.25098039" snapvisiblegridlinesonly="true" />
  </sodipodi:namedview>
  <defs id="defs3" />
  <metadata id="metadata4">
    <rdf:RDF>
      <cc:Work rdf:about="">
        <dc:format>image/svg+xml</dc:format>
        <dc:type rdf:resource="http://purl.org/dc/dcmitype/StillImage" />
        <dc:creator>
          <cc:Agent>
            <dc:title>Sam Hewitt</dc:title>
          </cc:Agent>
        </dc:creator>
        <dc:source />
        <cc:license rdf:resource="http://creativecommons.org/licenses/by-sa/3.0/" />
        <dc:title>Paper Icon Theme Template</dc:title>
        <dc:subject>
          <rdf:Bag />
        </dc:subject>
        <dc:date />
        <dc:rights>
          <cc:Agent>
            <dc:title />
          </cc:Agent>
        </dc:rights>
        <dc:publisher>
          <cc:Agent>
            <dc:title />
          </cc:Agent>
        </dc:publisher>
        <dc:identifier />
        <dc:relation />
        <dc:language />
        <dc:coverage />
        <dc:description />
        <dc:contributor>
          <cc:Agent>
            <dc:title />
          </cc:Agent>
        </dc:contributor>
      </cc:Work>
      <cc:Work rdf:about="">
        <dc:format>image/svg+xml</dc:format>
        <dc:type rdf:resource="http://purl.org/dc/dcmitype/StillImage" />
      </cc:Work>
      <cc:License rdf:about="http://creativecommons.org/licenses/by-sa/3.0/">
        <cc:permits rdf:resource="http://creativecommons.org/ns#Reproduction" />
        <cc:permits rdf:resource="http://creativecommons.org/ns#Distribution" />
        <cc:requires rdf:resource="http://creativecommons.org/ns#Notice" />
        <cc:requires rdf:resource="http://creativecommons.org/ns#Attribution" />
        <cc:permits rdf:resource="http://creativecommons.org/ns#DerivativeWorks" />
        <cc:requires rdf:resource="http://creativecommons.org/ns#ShareAlike" />
      </cc:License>
    </rdf:RDF>
  </metadata>
  <g style="display:inline" inkscape:groupmode="layer" inkscape:label="Icon" id="layer1" transform="translate(0,244)">
    <g style="display:none" inkscape:label="Baseplate" id="layer7" inkscape:groupmode="layer">
      <text y="337.74512" xml:space="preserve" x="15.006836" style="font-style:normal;font-variant:normal;font-weight:normal;font-stretch:normal;font-size:18px;font-family:'DejaVu Sans';-inkscape-font-specification:'DejaVu Sans';display:inline;fill:#000000;fill-opacity:1;stroke:none;enable-background:new" inkscape:label="context" id="context">
        <tspan style="font-style:normal;font-variant:normal;font-weight:normal;font-stretch:normal;font-family:'DejaVu Sans';-inkscape-font-specification:'DejaVu Sans'" y="337.74512" x="15.006836" sodipodi:role="line" id="tspan3933">devices</tspan>
      </text>
      <text y="337.74512" xml:space="preserve" x="142.48828" style="font-style:normal;font-variant:normal;font-weight:bold;font-stretch:normal;font-size:18px;line-height:125%;font-family:'DejaVu Sans';-inkscape-font-specification:'DejaVu Sans Bold';text-align:start;writing-mode:lr-tb;text-anchor:start;display:inline;fill:#000000;fill-opacity:1;stroke:none;enable-background:new" sodipodi:linespacing="125%" inkscape:label="icon-name" id="icon-name">
        <tspan style="font-style:normal;font-variant:normal;font-weight:bold;font-stretch:normal;font-size:18px;font-family:'DejaVu Sans';-inkscape-font-specification:'DejaVu Sans Bold'" y="337.74512" x="142.48828" sodipodi:role="line" id="tspan3937">gpu</tspan>
      </text>
      <rect style="display:inline;overflow:visible;visibility:visible;fill:#d3d7cf;fill-opacity:1;fill-rule:nonzero;stroke:none;stroke-width:2;marker:none;enable-background:accumulate" id="rect16x16" width="16" height="16" x="-32" y="268" inkscape:label="16x16" transform="scale(-1,1)" />
      <rect style="display:inline;overflow:visible;visibility:visible;fill:#d3d7cf;fill-opacity:1;fill-rule:nonzero;stroke:none;stroke-width:2;marker:none;enable-background:accumulate" id="rect24x24" width="24" height="24" x="-76" y="260" inkscape:label="24x24" transform="scale(-1,1)" />
      <rect style="display:inline;overflow:visible;visibility:visible;fill:#d3d7cf;fill-opacity:1;fill-rule:nonzero;stroke:none;stroke-width:2;marker:none;enable-background:accumulate" id="rect32x32" width="32" height="32" x="-128" y="252" inkscape:label="32x32" transform="scale(-1,1)" />
      <rect inkscape:label="48x48" y="236" x="-192" height="48" width="48" id="rect48x48" style="display:inline;overflow:visible;visibility:visible;fill:#d3d7cf;fill-opacity:1;fill-rule:nonzero;stroke:none;stroke-width:2;marker:none;enable-background:accumulate" transform="scale(-1,1)" />
      <rect style="display:inline;overflow:visible;visibility:visible;fill:#d3d7cf;fill-opacity:1;fill-rule:nonzero;stroke:none;stroke-width:2;marker:none;enable-background:accumulate" id="rect3951" width="512" height="512" x="-720" y="-228" inkscape:label="48x48" transform="scale(-1,1)" />
    </g>
    <g inkscape:groupmode="layer" inkscape:label="Symbols" id="layer6" style="display:inline">
      <rect x="18" y="270" width="1" height="12" fill="#b0bec5" style="stroke:none" />
      <rect x="19" y="272" width="12" height="8" rx="0.5" ry="0.5" fill="#37474f" style="stroke:none" />
      <rect x="21" y="280" width="7" height="1" fill="#feea3a" style="stroke:none" />
      <circle cx="22" cy="276" r="1.7" fill="#ffffff" style="stroke:none" />
      <circle cx="22" cy="276" r="1.3" fill="#4bae4f" style="stroke:none" />
      <circle cx="22" cy="276" r="0.6" fill="#37474f" style="stroke:none" />
      <circle cx="28" cy="276" r="1.7" fill="#ffffff" style="stroke:none" />
      <circle cx="28" cy="276" r="1.3" fill="#4bae4f" style="stroke:none" />
      <circle cx="28" cy="276" r="0.6" fill="#37474f" style="stroke:none" />
      <rect x="54" y="264" width="1" height="17" fill="#b0bec5" style="stroke:none" />
      <rect x="53" y="263" width="3" height="2" fill="#b0bec5" style="stroke:none" />
      <rect x="56" y="265" width="19" height="12" rx="1" ry="1" fill="#37474f" style="stroke:none" />
      <rect x="56" y="265" width="19" height="1" fill="#ffffff" opacity="0.2" style="stroke:none" />
      <rect x="60" y="278" width="11" height="2" fill="#feea3a" style="stroke:none" />
      <circle cx="61" cy="271" r="3" fill="#ffffff" style="stroke:none" />
      <circle cx="61" cy="271" r="2.4" fill="#4bae4f" style="stroke:none" />
      <line x1="59" y1="269" x2="63" y2="273" stroke="#ffffff" stroke-width="0.8" />
      <line x1="63" y1="269" x2="59" y2="273" stroke="#ffffff" stroke-width="0.8" />
      <circle cx="61" cy="271" r="1.2" fill="#37474f" style="stroke:none" />
      <circle cx="70" cy="271" r="3" fill="#ffffff" style="stroke:none" />
      <circle cx="70" cy="271" r="2.4" fill="#4bae4f" style="stroke:none" />
      <line x1="68" y1="269" x2="72" y2="273" stroke="#ffffff" stroke-width="0.8" />
      <line x1="72" y1="269" x2="68" y2="273" stroke="#ffffff" stroke-width="0.8" />
      <circle cx="70" cy="271" r="1.2" fill="#37474f" style="stroke:none" />
      <rect x="97" y="256" width="4" height="21" rx="1" ry="1" fill="#b0bec5" style="stroke:none" />
      <path d="M 98,277 L 100,277 L 100,279 L 98,279 Z" fill="#b0bec5" style="stroke:none" />
      <rect x="100" y="259" width="27" height="17" rx="1.5" ry="1.5" fill="#37474f" style="stroke:none" />
      <rect x="100" y="259" width="27" height="1" fill="#ffffff" opacity="0.2" style="stroke:none" />
      <rect x="100" y="275" width="27" height="1" fill="#000000" opacity="0.2" style="stroke:none" />
      <rect x="106" y="276" width="2" height="3" fill="#feea3a" style="stroke:none" />
      <rect x="110" y="276" width="2" height="3" fill="#feea3a" style="stroke:none" />
      <rect x="114" y="276" width="2" height="3" fill="#feea3a" style="stroke:none" />
      <circle cx="107" cy="267.5" r="5" fill="#ffffff" style="stroke:none" />
      <circle cx="107" cy="267.5" r="4.2" fill="#4bae4f" style="stroke:none" />
      <line x1="103.5" y1="264" x2="110.5" y2="271" stroke="#ffffff" stroke-width="1.2" />
      <line x1="110.5" y1="264" x2="103.5" y2="271" stroke="#ffffff" stroke-width="1.2" />
      <line x1="107" y1="262.5" x2="107" y2="272.5" stroke="#ffffff" stroke-width="1.2" />
      <line x1="102" y1="267.5" x2="112" y2="267.5" stroke="#ffffff" stroke-width="1.2" />
      <circle cx="107" cy="267.5" r="2" fill="#37474f" style="stroke:none" />
      <circle cx="120" cy="267.5" r="5" fill="#ffffff" style="stroke:none" />
      <circle cx="120" cy="267.5" r="4.2" fill="#4bae4f" style="stroke:none" />
      <line x1="116.5" y1="264" x2="123.5" y2="271" stroke="#ffffff" stroke-width="1.2" />
      <line x1="123.5" y1="264" x2="116.5" y2="271" stroke="#ffffff" stroke-width="1.2" />
      <line x1="120" y1="262.5" x2="120" y2="272.5" stroke="#ffffff" stroke-width="1.2" />
      <line x1="115" y1="267.5" x2="125" y2="267.5" stroke="#ffffff" stroke-width="1.2" />
      <circle cx="120" cy="267.5" r="2" fill="#37474f" style="stroke:none" />
      <rect x="147" y="242" width="6" height="3" rx="1" ry="1" fill="#b0bec5" style="stroke:none" />
      <path d="M 150,244 L 153,244 L 153,276 L 152,276 L 152,277 L 151,277 L 151,276 L 150,276 Z" fill="#b0bec5" style="stroke:none" />
      <rect x="153" y="246" width="35" height="27" rx="1.5" ry="1.5" fill="#37474f" style="stroke:none" />
      <rect x="153" y="246" width="35" height="1" fill="#ffffff" opacity="0.2" style="stroke:none" />
      <rect x="153" y="272" width="35" height="1" fill="#000000" opacity="0.2" style="stroke:none" />
      <rect x="162" y="273" width="3" height="4" fill="#feea3a" style="stroke:none" />
      <rect x="168" y="273" width="3" height="4" fill="#feea3a" style="stroke:none" />
      <rect x="174" y="273" width="3" height="4" fill="#feea3a" style="stroke:none" />
      <rect x="180" y="273" width="3" height="4" fill="#feea3a" style="stroke:none" />
      <circle cx="160" cy="259.5" r="7.5" fill="#ffffff" style="stroke:none" />
      <circle cx="160" cy="259.5" r="6.4" fill="#4bae4f" style="stroke:none" />
      <line x1="155" y1="254.5" x2="165" y2="264.5" stroke="#ffffff" stroke-width="1.5" />
      <line x1="165" y1="254.5" x2="155" y2="264.5" stroke="#ffffff" stroke-width="1.5" />
      <line x1="160" y1="252" x2="160" y2="267" stroke="#ffffff" stroke-width="1.5" />
      <line x1="152.5" y1="259.5" x2="167.5" y2="259.5" stroke="#ffffff" stroke-width="1.5" />
      <circle cx="160" cy="259.5" r="3" fill="#37474f" style="stroke:none" />
      <circle cx="179" cy="259.5" r="7.5" fill="#ffffff" style="stroke:none" />
      <circle cx="179" cy="259.5" r="6.4" fill="#4bae4f" style="stroke:none" />
      <line x1="174" y1="254.5" x2="184" y2="264.5" stroke="#ffffff" stroke-width="1.5" />
      <line x1="184" y1="254.5" x2="174" y2="264.5" stroke="#ffffff" stroke-width="1.5" />
      <line x1="179" y1="252" x2="179" y2="267" stroke="#ffffff" stroke-width="1.5" />
      <line x1="171.5" y1="259.5" x2="186.5" y2="259.5" stroke="#ffffff" stroke-width="1.5" />
      <circle cx="179" cy="259.5" r="3" fill="#37474f" style="stroke:none" />
      <rect x="240" y="-160" width="64" height="32" rx="8" ry="8" fill="#000000" opacity="0.1" filter="url(#filter4324)" style="stroke:none" />
      <path d="M 272,-136 L 304,-136 L 304,200 L 296,200 L 296,208 L 280,208 L 280,200 L 272,200 Z" fill="#000000" opacity="0.1" filter="url(#filter4324)" style="stroke:none" />
      <rect x="272" y="-112" width="432" height="272" rx="16" ry="16" fill="#000000" opacity="0.1" filter="url(#filter4324)" style="stroke:none" />
      <rect x="240" y="-164" width="64" height="32" rx="8" ry="8" fill="#b0bec5" style="stroke:none" />
      <path d="M 272,-140 L 304,-140 L 304,196 L 296,196 L 296,204 L 280,204 L 280,196 L 272,196 Z" fill="#b0bec5" style="stroke:none" />
      <rect x="272" y="-116" width="432" height="272" rx="16" ry="16" fill="#37474f" style="stroke:none" />
      <path d="M 288,-116 C 279.16,-116 272,-108.84 272,-100 L 272,-98 C 272,-106.84 279.16,-114 288,-114 L 688,-114 C 696.84,-114 704,-106.84 704,-98 L 704,-100 C 704,-108.84 696.84,-116 688,-116 Z" fill="#ffffff" opacity="0.2" style="stroke:none" />
      <path d="M 272,136 L 272,140 C 272,148.84 279.16,156 288,156 L 688,156 C 696.84,156 704,148.84 704,140 L 704,136 C 704,144.84 696.84,152 688,152 L 288,152 C 279.16,152 272,144.84 272,136 Z" fill="#000000" opacity="0.2" style="stroke:none" />
      <rect x="368" y="152" width="32" height="64" fill="#feea3a" style="stroke:none" />
      <rect x="432" y="152" width="32" height="64" fill="#feea3a" style="stroke:none" />
      <rect x="496" y="152" width="32" height="64" fill="#feea3a" style="stroke:none" />
      <rect x="560" y="152" width="32" height="64" fill="#feea3a" style="stroke:none" />
      <circle cx="384" cy="20" r="80" fill="#ffffff" style="stroke:none" />
      <circle cx="384" cy="20" r="72" fill="#4bae4f" style="stroke:none" />
      <line x1="404.00" y1="20.00" x2="454.00" y2="20.00" stroke="#ffffff" stroke-width="14" stroke-linecap="round" />
      <line x1="398.14" y1="34.14" x2="433.50" y2="69.50" stroke="#ffffff" stroke-width="14" stroke-linecap="round" />
      <line x1="384.00" y1="40.00" x2="384.00" y2="90.00" stroke="#ffffff" stroke-width="14" stroke-linecap="round" />
      <line x1="369.86" y1="34.14" x2="334.50" y2="69.50" stroke="#ffffff" stroke-width="14" stroke-linecap="round" />
      <line x1="364.00" y1="20.00" x2="314.00" y2="20.00" stroke="#ffffff" stroke-width="14" stroke-linecap="round" />
      <line x1="369.86" y1="5.86" x2="334.50" y2="-29.50" stroke="#ffffff" stroke-width="14" stroke-linecap="round" />
      <line x1="384.00" y1="0.00" x2="384.00" y2="-50.00" stroke="#ffffff" stroke-width="14" stroke-linecap="round" />
      <line x1="398.14" y1="5.86" x2="433.50" y2="-29.50" stroke="#ffffff" stroke-width="14" stroke-linecap="round" />
      <circle cx="384" cy="20" r="28" fill="#37474f" style="stroke:none" />
      <circle cx="592" cy="20" r="80" fill="#ffffff" style="stroke:none" />
      <circle cx="592" cy="20" r="72" fill="#4bae4f" style="stroke:none" />
      <line x1="612.00" y1="20.00" x2="662.00" y2="20.00" stroke="#ffffff" stroke-width="14" stroke-linecap="round" />
      <line x1="606.14" y1="34.14" x2="641.50" y2="69.50" stroke="#ffffff" stroke-width="14" stroke-linecap="round" />
      <line x1="592.00" y1="40.00" x2="592.00" y2="90.00" stroke="#ffffff" stroke-width="14" stroke-linecap="round" />
      <line x1="577.86" y1="34.14" x2="542.50" y2="69.50" stroke="#ffffff" stroke-width="14" stroke-linecap="round" />
      <line x1="572.00" y1="20.00" x2="522.00" y2="20.00" stroke="#ffffff" stroke-width="14" stroke-linecap="round" />
      <line x1="577.86" y1="5.86" x2="542.50" y2="-29.50" stroke="#ffffff" stroke-width="14" stroke-linecap="round" />
      <line x1="592.00" y1="0.00" x2="592.00" y2="-50.00" stroke="#ffffff" stroke-width="14" stroke-linecap="round" />
      <line x1="606.14" y1="5.86" x2="641.50" y2="-29.50" stroke="#ffffff" stroke-width="14" stroke-linecap="round" />
      <circle cx="592" cy="20" r="28" fill="#37474f" style="stroke:none" />
    </g>
  </g>
</svg>