<?xml version="1.0" encoding="UTF-8" standalone="no"?>
<svg
   xmlns:dc="http://purl.org/dc/elements/1.1/"
   xmlns:cc="http://creativecommons.org/ns#"
   xmlns:rdf="http://www.w3.org/1999/02/22-rdf-syntax-ns#"
   xmlns:svg="http://www.w3.org/2000/svg"
   xmlns="http://www.w3.org/2000/svg"
   xmlns:xlink="http://www.w3.org/1999/xlink"
   xmlns:sodipodi="http://sodipodi.sourceforge.net/DTD/sodipodi-0.dtd"
   xmlns:inkscape="http://www.inkscape.org/namespaces/inkscape"
   width="736"
   height="544"
   id="svg11300"
   sodipodi:version="0.32"
   inkscape:version="0.91 r"
   sodipodi:docname="refresh.svg"
   version="1.0"
   style="display:inline;enable-background:new">
  <title id="title3004">Paper Icon Theme</title>
  <defs id="defs3">
    <g id="refresh-symbol">
      <g id="refresh-shadow" transform="translate(0,1)" style="opacity:0.18;fill:#000000;fill-opacity:1;stroke:none">
        <path
           id="refresh-shadow-top"
           d="M 4,28 C 4,14.745 16.536,4 32,4 c 10.561,0 20.149,5.017 24.953,12.917 L 60,10 v 18 H 42 l 5.31,-5.31 C 43.777,17.372 38.071,14 32,14 22.611,14 15.125,20.254 14.012,28 Z" />
        <path
           id="refresh-shadow-bottom"
           d="M 60,36 C 60,49.255 47.464,60 32,60 21.439,60 11.851,54.983 7.047,47.083 L 4,54 V 36 h 18 l -5.31,5.31 C 20.223,46.628 25.929,50 32,50 41.389,50 48.875,43.746 49.988,36 Z" />
      </g>
      <path
         id="refresh-top"
         d="M 4,28 C 4,14.745 16.536,4 32,4 c 10.561,0 20.149,5.017 24.953,12.917 L 60,10 v 18 H 42 l 5.31,-5.31 C 43.777,17.372 38.071,14 32,14 22.611,14 15.125,20.254 14.012,28 Z"
         style="fill:#48a9ff;fill-opacity:1;stroke:none" />
      <path
         id="refresh-bottom"
         d="M 60,36 C 60,49.255 47.464,60 32,60 21.439,60 11.851,54.983 7.047,47.083 L 4,54 V 36 h 18 l -5.31,5.31 C 20.223,46.628 25.929,50 32,50 41.389,50 48.875,43.746 49.988,36 Z"
         style="fill:#486afb;fill-opacity:1;stroke:none" />
      <path
         id="refresh-highlight-top"
         d="M 32,4 C 16.536,4 4,14.745 4,28 h 1 C 5,15.32 17.088,5 32,5 c 10.204,0 19.475,4.799 24.132,12.386 l 0.821,-0.469 C 52.149,9.017 42.561,4 32,4 Z"
         style="opacity:0.2;fill:#ffffff;fill-opacity:1;stroke:none" />
      <path
         id="refresh-highlight-bottom"
         d="M 49.988,36 C 48.875,43.746 41.389,50 32,50 25.929,50 20.223,46.628 16.69,41.31 l -0.72,0.72 C 19.694,47.47 25.705,51 32,51 c 9.832,0 17.722,-6.578 18.998,-15 z"
         style="opacity:0.16;fill:#ffffff;fill-opacity:1;stroke:none" />
    </g>
  </defs>
  <metadata id="metadata4">
    <rdf:RDF>
      <cc:Work rdf:about="">
        <dc:format>image/svg+xml</dc:format>
        <dc:type rdf:resource="http://purl.org/dc/dcmitype/StillImage" />
        <dc:creator>
          <cc:Agent>
            <dc:title>Sam Hewitt</dc:title>
          </cc:Agent>
        </dc:creator>
        <cc:license rdf:resource="http://creativecommons.org/licenses/by-sa/3.0/" />
        <dc:title>Paper Icon Theme</dc:title>
      </cc:Work>
      <cc:License rdf:about="http://creativecommons.org/licenses/by-sa/3.0/">
        <cc:permits rdf:resource="http://creativecommons.org/ns#Reproduction" />
        <cc:permits rdf:resource="http://creativecommons.org/ns#Distribution" />
        <cc:requires rdf:resource="http://creativecommons.org/ns#Notice" />
        <cc:requires rdf:resource="http://creativecommons.org/ns#Attribution" />
        <cc:permits rdf:resource="http://creativecommons.org/ns#DerivativeWorks" />
        <cc:requires rdf:resource="http://creativecommons.org/ns#ShareAlike" />
      </cc:License>
    </rdf:RDF>
  </metadata>
  <g
     style="display:inline"
     inkscape:groupmode="layer"
     inkscape:label="Icon"
     id="layer1"
     transform="translate(0,244)">
    <g style="display:none" inkscape:label="Baseplate" id="layer7" inkscape:groupmode="layer">
      <text y="337.74512" xml:space="preserve" x="15.006836" style="font-style:normal;font-variant:normal;font-weight:normal;font-stretch:normal;font-size:18px;font-family:'DejaVu Sans';-inkscape-font-specification:'DejaVu Sans';display:inline;fill:#000000;fill-opacity:1;stroke:none;enable-background:new" inkscape:label="context" id="context"><tspan y="337.74512" x="15.006836" sodipodi:role="line" id="tspan3933">actions</tspan></text>
      <text y="337.74512" xml:space="preserve" x="142.48828" style="font-style:normal;font-variant:normal;font-weight:bold;font-stretch:normal;font-size:18px;line-height:125%;font-family:'DejaVu Sans';-inkscape-font-specification:'DejaVu Sans Bold';text-align:start;writing-mode:lr-tb;text-anchor:start;display:inline;fill:#000000;fill-opacity:1;stroke:none;enable-background:new" sodipodi:linespacing="125%" inkscape:label="icon-name" id="icon-name"><tspan y="337.74512" x="142.48828" sodipodi:role="line" id="tspan3937">refresh</tspan></text>
      <rect style="display:inline;overflow:visible;visibility:visible;fill:#d3d7cf;fill-opacity:1;fill-rule:nonzero;stroke:none;stroke-width:2;marker:none;enable-background:accumulate" id="rect16x16" width="16" height="16" x="-32" y="268" inkscape:label="16x16" transform="scale(-1,1)" />
      <rect style="display:inline;overflow:visible;visibility:visible;fill:#d3d7cf;fill-opacity:1;fill-rule:nonzero;stroke:none;stroke-width:2;marker:none;enable-background:accumulate" id="rect24x24" width="24" height="24" x="-76" y="260" inkscape:label="24x24" transform="scale(-1,1)" />
      <rect style="display:inline;overflow:visible;visibility:visible;fill:#d3d7cf;fill-opacity:1;fill-rule:nonzero;stroke:none;stroke-width:2;marker:none;enable-background:accumulate" id="rect32x32" width="32" height="32" x="-128" y="252" inkscape:label="32x32" transform="scale(-1,1)" />
      <rect inkscape:label="48x48" y="236" x="-192" height="48" width="48" id="rect48x48" style="display:inline;overflow:visible;visibility:visible;fill:#d3d7cf;fill-opacity:1;fill-rule:nonzero;stroke:none;stroke-width:2;marker:none;enable-background:accumulate" transform="scale(-1,1)" />
      <rect style="display:inline;overflow:visible;visibility:visible;fill:#d3d7cf;fill-opacity:1;fill-rule:nonzero;stroke:none;stroke-width:2;marker:none;enable-background:accumulate" id="rect3951" width="512" height="512" x="-720" y="-228" inkscape:label="48x48" transform="scale(-1,1)" />
    </g>
    <g inkscape:groupmode="layer" inkscape:label="Symbols" id="layer6" style="display:inline">
      <use id="refresh-16" xlink:href="#refresh-symbol" transform="translate(16,268) scale(0.25)" width="100%" height="100%" />
      <use id="refresh-24" xlink:href="#refresh-symbol" transform="translate(52,260) scale(0.375)" width="100%" height="100%" />
      <use id="refresh-32" xlink:href="#refresh-symbol" transform="translate(96,252) scale(0.5)" width="100%" height="100%" />
      <use id="refresh-48" xlink:href="#refresh-symbol" transform="translate(144,236) scale(0.75)" width="100%" height="100%" />
      <use id="refresh-512" xlink:href="#refresh-symbol" transform="translate(208,-228) scale(8)" width="100%" height="100%" />
    </g>
  </g>
</svg>
