<?xml version="1.0" encoding="UTF-8" standalone="no"?>
<!-- Created with Inkscape (http://www.inkscape.org/) -->

<svg
   xmlns:dc="http://purl.org/dc/elements/1.1/"
   xmlns:cc="http://creativecommons.org/ns#"
   xmlns:rdf="http://www.w3.org/1999/02/22-rdf-syntax-ns#"
   xmlns:svg="http://www.w3.org/2000/svg"
   xmlns="http://www.w3.org/2000/svg"
   xmlns:sodipodi="http://sodipodi.sourceforge.net/DTD/sodipodi-0.dtd"
   xmlns:inkscape="http://www.inkscape.org/namespaces/inkscape"
   width="736"
   height="544"
   id="svg11300"
   sodipodi:docname="rocket.svg"
   version="1.0"
   style="display:inline;enable-background:new">
  <title id="title3004">Paper Icon Theme</title>
  <defs id="defs3">
    <filter
       inkscape:collect="always"
       style="color-interpolation-filters:sRGB"
       id="filter4232"
       x="-0.024"
       width="1.048"
       y="-0.024"
       height="1.048">
      <feGaussianBlur
         inkscape:collect="always"
         stdDeviation="4.48"
         id="feGaussianBlur4234" />
    </filter>
  </defs>
  <g
     style="display:inline"
     inkscape:groupmode="layer"
     inkscape:label="Icon"
     id="layer1"
     transform="translate(0,244)">
    <g
       style="display:none"
       inkscape:label="Baseplate"
       id="layer7"
       inkscape:groupmode="layer">
      <text
         y="337.74512"
         xml:space="preserve"
         x="15.006836"
         style="font-style:normal;font-variant:normal;font-weight:normal;font-stretch:normal;font-size:18px;font-family:'DejaVu Sans';-inkscape-font-specification:'DejaVu Sans';display:inline;fill:#000000;fill-opacity:1;stroke:none;enable-background:new"
         inkscape:label="context"
         id="context"><tspan
           y="337.74512"
           x="15.006836"
           sodipodi:role="line"
           id="tspan3933">actions</tspan></text>
      <text
         y="337.74512"
         xml:space="preserve"
         x="142.48828"
         style="font-style:normal;font-variant:normal;font-weight:bold;font-stretch:normal;font-size:18px;line-height:125%;font-family:'DejaVu Sans';-inkscape-font-specification:'DejaVu Sans Bold';text-align:start;writing-mode:lr-tb;text-anchor:start;display:inline;fill:#000000;fill-opacity:1;stroke:none;enable-background:new"
         sodipodi:linespacing="125%"
         inkscape:label="icon-name"
         id="icon-name"><tspan
           y="337.74512"
           x="142.48828"
           sodipodi:role="line"
           id="tspan3937">rocket</tspan></text>
      <rect
         style="display:inline;overflow:visible;visibility:visible;fill:#d3d7cf;fill-opacity:1;fill-rule:nonzero;stroke:none;stroke-width:2;marker:none;enable-background:accumulate"
         id="rect16x16"
         width="16"
         height="16"
         x="-32"
         y="268"
         inkscape:label="16x16"
         transform="scale(-1,1)" />
      <rect
         style="display:inline;overflow:visible;visibility:visible;fill:#d3d7cf;fill-opacity:1;fill-rule:nonzero;stroke:none;stroke-width:2;marker:none;enable-background:accumulate"
         id="rect24x24"
         width="24"
         height="24"
         x="-76"
         y="260"
         inkscape:label="24x24"
         transform="scale(-1,1)" />
      <rect
         style="display:inline;overflow:visible;visibility:visible;fill:#d3d7cf;fill-opacity:1;fill-rule:nonzero;stroke:none;stroke-width:2;marker:none;enable-background:accumulate"
         id="rect32x32"
         width="32"
         height="32"
         x="-128"
         y="252"
         inkscape:label="32x32"
         transform="scale(-1,1)" />
      <rect
         inkscape:label="48x48"
         y="236"
         x="-192"
         height="48"
         width="48"
         id="rect48x48"
         style="display:inline;overflow:visible;visibility:visible;fill:#d3d7cf;fill-opacity:1;fill-rule:nonzero;stroke:none;stroke-width:2;marker:none;enable-background:accumulate"
         transform="scale(-1,1)" />
      <rect
         style="display:inline;overflow:visible;visibility:visible;fill:#d3d7cf;fill-opacity:1;fill-rule:nonzero;stroke:none;stroke-width:2;marker:none;enable-background:accumulate"
         id="rect3951"
         width="512"
         height="512"
         x="-720"
         y="-228"
         inkscape:label="48x48"
         transform="scale(-1,1)" />
    </g>
    <g
       inkscape:groupmode="layer"
       id="layer6"
       inkscape:label="Symbols"
       style="display:inline">
      <!-- 16x16 -->
      <path d="M 21.7180,274.9429 C 20.1270,275.1197 19.0664,275.4732 18.1825,276.0036 L 20.6574,278.4784 Z" fill="#000000" opacity="0.2" />
      <path d="M 25.6071,278.8320 C 25.4303,280.4230 25.0768,281.4836 24.5464,282.3675 L 22.0716,279.8926 Z" fill="#000000" opacity="0.2" />
      <path d="M 20.3038,278.1249 L 19.2431,279.8926 L 20.6574,281.3069 L 22.4251,280.2462 Z" fill="#000000" opacity="0.2" />
      <path d="M 26.8445,270.5235 C 24.5464,271.7609 21.0109,275.2964 20.6574,278.4784 L 22.0716,279.8926 C 25.2536,279.5391 28.7891,276.0036 30.0265,273.7055 Z" fill="#000000" opacity="0.2" />
      <path d="M 26.8445,270.5235 C 28.2588,269.8164 29.8497,269.2860 30.5569,269.9931 C 31.2640,270.7003 30.7336,272.2912 30.0265,273.7055 Z" fill="#000000" opacity="0.2" />
      <path d="M 19.2431,279.3926 C 17.8289,280.0997 16.4147,281.8675 17.2986,282.7514 C 18.1825,283.6353 19.9503,282.2211 20.6574,280.8069 Z" fill="#ffd800" />
      <path d="M 19.5260,279.6755 C 18.6421,280.2058 17.6522,281.3372 18.1825,281.8675 C 18.7128,282.3978 19.8442,281.4079 20.3745,280.5240 Z" fill="#ff562e" />
      <path d="M 20.3038,277.6249 L 19.2431,279.3926 L 20.6574,280.8069 L 22.4251,279.7462 Z" fill="#546e7a" />
      <path d="M 21.7180,274.4429 C 20.1270,274.6197 19.0664,274.9732 18.1825,275.5036 L 20.6574,277.9784 Z" fill="#0292e1" />
      <path d="M 25.6071,278.3320 C 25.4303,279.9230 25.0768,280.9836 24.5464,281.8675 L 22.0716,279.3926 Z" fill="#0292e1" />
      <path d="M 26.8445,270.0235 C 24.5464,271.2609 21.0109,274.7964 20.6574,277.9784 L 22.0716,279.3926 C 25.2536,279.0391 28.7891,275.5036 30.0265,273.2055 Z" fill="#bebebe" />
      <path d="M 26.8445,270.0235 C 28.2588,269.3164 29.8497,268.7860 30.5569,269.4931 C 31.2640,270.2003 30.7336,271.7912 30.0265,273.2055 Z" fill="#e53935" />
      <circle cx="25.9607" cy="274.0893" r="0.7000" fill="#455a64" />
      <circle cx="23.6626" cy="276.3874" r="0.4500" fill="#455a64" />

      <!-- 24x24 -->
      <path d="M 60.5770,270.4143 C 58.1905,270.6795 56.5996,271.2098 55.2737,272.0053 L 58.9860,275.7176 Z" fill="#000000" opacity="0.2" />
      <path d="M 66.4107,276.2480 C 66.1455,278.6345 65.6152,280.2254 64.8197,281.5513 L 61.1074,277.8390 Z" fill="#000000" opacity="0.2" />
      <path d="M 58.4557,275.1873 L 56.8647,277.8390 L 58.9860,279.9603 L 61.6377,278.3693 Z" fill="#000000" opacity="0.2" />
      <path d="M 68.2668,263.7852 C 64.8197,265.6414 59.5164,270.9447 58.9860,275.7176 L 61.1074,277.8390 C 65.8803,277.3086 71.1836,272.0053 73.0398,268.5582 Z" fill="#000000" opacity="0.2" />
      <path d="M 68.2668,263.7852 C 70.3881,262.7246 72.7746,261.9291 73.8353,262.9897 C 74.8959,264.0504 74.1004,266.4369 73.0398,268.5582 Z" fill="#000000" opacity="0.2" />
      <path d="M 56.8647,277.0890 C 54.7434,278.1496 52.6221,280.8013 53.9479,282.1271 C 55.2737,283.4529 57.9254,281.3316 58.9860,279.2103 Z" fill="#ffd800" />
      <path d="M 57.2890,277.5132 C 55.9632,278.3087 54.4782,280.0058 55.2737,280.8013 C 56.0692,281.5968 57.7663,280.1118 58.5618,278.7860 Z" fill="#ff562e" />
      <path d="M 58.4557,274.4373 L 56.8647,277.0890 L 58.9860,279.2103 L 61.6377,277.6193 Z" fill="#546e7a" />
      <path d="M 60.5770,269.6643 C 58.1905,269.9295 56.5996,270.4598 55.2737,271.2553 L 58.9860,274.9676 Z" fill="#0292e1" />
      <path d="M 66.4107,275.4980 C 66.1455,277.8845 65.6152,279.4754 64.8197,280.8013 L 61.1074,277.0890 Z" fill="#0292e1" />
      <path d="M 68.2668,263.0352 C 64.8197,264.8914 59.5164,270.1947 58.9860,274.9676 L 61.1074,277.0890 C 65.8803,276.5586 71.1836,271.2553 73.0398,267.8082 Z" fill="#bebebe" />
      <path d="M 68.2668,263.0352 C 70.3881,261.9746 72.7746,261.1791 73.8353,262.2397 C 74.8959,263.3004 74.1004,265.6869 73.0398,267.8082 Z" fill="#e53935" />
      <circle cx="66.9410" cy="269.1340" r="1.0500" fill="#455a64" />
      <circle cx="63.4938" cy="272.5812" r="0.6750" fill="#455a64" />

      <!-- 32x32 -->
      <path d="M 107.4360,265.8858 C 104.2541,266.2393 102.1327,266.9464 100.3650,268.0071 L 105.3147,272.9569 Z" fill="#000000" opacity="0.2" />
      <path d="M 115.2142,273.6640 C 114.8607,276.8459 114.1536,278.9673 113.0929,280.7350 L 108.1431,275.7853 Z" fill="#000000" opacity="0.2" />
      <path d="M 104.6076,272.2497 L 102.4863,275.7853 L 105.3147,278.6137 L 108.8503,276.4924 Z" fill="#000000" opacity="0.2" />
      <path d="M 117.6891,257.0470 C 113.0929,259.5218 106.0218,266.5929 105.3147,272.9569 L 108.1431,275.7853 C 114.5071,275.0782 121.5782,268.0071 124.0530,263.4109 Z" fill="#000000" opacity="0.2" />
      <path d="M 117.6891,257.0470 C 120.5175,255.6327 123.6995,254.5721 125.1137,255.9863 C 126.5279,257.4005 125.4673,260.5825 124.0530,263.4109 Z" fill="#000000" opacity="0.2" />
      <path d="M 102.4863,274.7853 C 99.6579,276.1995 96.8294,279.7350 98.5972,281.5028 C 100.3650,283.2706 103.9005,280.4421 105.3147,277.6137 Z" fill="#ffd800" />
      <path d="M 103.0520,275.3510 C 101.2842,276.4116 99.3043,278.6744 100.3650,279.7350 C 101.4256,280.7957 103.6884,278.8158 104.7490,277.0480 Z" fill="#ff562e" />
      <path d="M 104.6076,271.2497 L 102.4863,274.7853 L 105.3147,277.6137 L 108.8503,275.4924 Z" fill="#546e7a" />
      <path d="M 107.4360,264.8858 C 104.2541,265.2393 102.1327,265.9464 100.3650,267.0071 L 105.3147,271.9569 Z" fill="#0292e1" />
      <path d="M 115.2142,272.6640 C 114.8607,275.8459 114.1536,277.9673 113.0929,279.7350 L 108.1431,274.7853 Z" fill="#0292e1" />
      <path d="M 117.6891,256.0470 C 113.0929,258.5218 106.0218,265.5929 105.3147,271.9569 L 108.1431,274.7853 C 114.5071,274.0782 121.5782,267.0071 124.0530,262.4109 Z" fill="#bebebe" />
      <path d="M 117.6891,256.0470 C 120.5175,254.6327 123.6995,253.5721 125.1137,254.9863 C 126.5279,256.4005 125.4673,259.5825 124.0530,262.4109 Z" fill="#e53935" />
      <circle cx="115.9213" cy="264.1787" r="1.4000" fill="#455a64" />
      <circle cx="111.3251" cy="268.7749" r="0.9000" fill="#455a64" />

      <!-- 48x48 -->
      <path d="M 161.1541,256.8287 C 156.3811,257.3590 153.1991,258.4197 150.5475,260.0107 L 157.9721,267.4353 Z" fill="#000000" opacity="0.2" />
      <path d="M 172.8213,268.4959 C 172.2910,273.2689 171.2303,276.4509 169.6393,279.1025 L 162.2147,271.6779 Z" fill="#000000" opacity="0.2" />
      <path d="M 156.9114,266.3746 L 153.7294,271.6779 L 157.9721,275.9206 L 163.2754,272.7386 Z" fill="#000000" opacity="0.2" />
      <path d="M 176.5336,243.5704 C 169.6393,247.2827 159.0327,257.8893 157.9721,267.4353 L 162.2147,271.6779 C 171.7607,270.6173 182.3673,260.0107 186.0796,253.1164 Z" fill="#000000" opacity="0.2" />
      <path d="M 176.5336,243.5704 C 180.7763,241.4491 185.5492,239.8581 187.6706,241.9794 C 189.7919,244.1008 188.2009,248.8737 186.0796,253.1164 Z" fill="#000000" opacity="0.2" />
      <path d="M 153.7294,270.1779 C 149.4868,272.2992 145.2442,277.6025 147.8958,280.2542 C 150.5475,282.9058 155.8508,278.6632 157.9721,274.4206 Z" fill="#ffd800" />
      <path d="M 154.5780,271.0265 C 151.9263,272.6174 148.9565,276.0116 150.5475,277.6025 C 152.1384,279.1935 155.5326,276.2237 157.1235,273.5720 Z" fill="#ff562e" />
      <path d="M 156.9114,264.8746 L 153.7294,270.1779 L 157.9721,274.4206 L 163.2754,271.2386 Z" fill="#546e7a" />
      <path d="M 161.1541,255.3287 C 156.3811,255.8590 153.1991,256.9197 150.5475,258.5107 L 157.9721,265.9353 Z" fill="#0292e1" />
      <path d="M 172.8213,266.9959 C 172.2910,271.7689 171.2303,274.9509 169.6393,277.6025 L 162.2147,270.1779 Z" fill="#0292e1" />
      <path d="M 176.5336,242.0704 C 169.6393,245.7827 159.0327,256.3893 157.9721,265.9353 L 162.2147,270.1779 C 171.7607,269.1173 182.3673,258.5107 186.0796,251.6164 Z" fill="#bebebe" />
      <path d="M 176.5336,242.0704 C 180.7763,239.9491 185.5492,238.3581 187.6706,240.4794 C 189.7919,242.6008 188.2009,247.3737 186.0796,251.6164 Z" fill="#e53935" />
      <circle cx="173.8820" cy="254.2680" r="2.1000" fill="#455a64" />
      <circle cx="166.9877" cy="261.1623" r="1.3500" fill="#455a64" />

      <!-- 512x512 -->
      <g opacity="0.1" filter="url(#filter4232)">
        <path d="M 390.9766,-5.8274 C 340.0649,-0.1706 306.1238,11.1431 277.8395,28.1137 L 357.0355,107.3097 Z" fill="#000000" />
        <path d="M 515.4274,118.6234 C 509.7706,169.5351 498.4569,203.4762 481.4863,231.7605 L 402.2903,152.5645 Z" fill="#000000" />
        <path d="M 345.7218,95.9960 L 311.7807,152.5645 L 357.0355,197.8193 L 413.6040,163.8782 Z" fill="#000000" />
        <path d="M 555.0254,-147.2488 C 481.4863,-107.6508 368.3492,5.4863 357.0355,107.3097 L 402.2903,152.5645 C 504.1137,141.2508 617.2508,28.1137 656.8488,-45.4254 Z" fill="#000000" />
        <path d="M 555.0254,-147.2488 C 600.2802,-169.8762 651.1919,-186.8468 673.8193,-164.2193 C 696.4468,-141.5919 679.4762,-90.6802 656.8488,-45.4254 Z" fill="#000000" />
      </g>
      <g opacity="0.2" filter="url(#filter4232)">
        <path d="M 390.9766,-5.8274 C 340.0649,-0.1706 306.1238,11.1431 277.8395,28.1137 L 357.0355,107.3097 Z" fill="#000000" />
        <path d="M 515.4274,118.6234 C 509.7706,169.5351 498.4569,203.4762 481.4863,231.7605 L 402.2903,152.5645 Z" fill="#000000" />
        <path d="M 345.7218,95.9960 L 311.7807,152.5645 L 357.0355,197.8193 L 413.6040,163.8782 Z" fill="#000000" />
        <path d="M 555.0254,-147.2488 C 481.4863,-107.6508 368.3492,5.4863 357.0355,107.3097 L 402.2903,152.5645 C 504.1137,141.2508 617.2508,28.1137 656.8488,-45.4254 Z" fill="#000000" />
        <path d="M 555.0254,-147.2488 C 600.2802,-169.8762 651.1919,-186.8468 673.8193,-164.2193 C 696.4468,-141.5919 679.4762,-90.6802 656.8488,-45.4254 Z" fill="#000000" />
      </g>
      <g opacity="0.2">
        <path d="M 390.9766,-13.8274 C 340.0649,-8.1706 306.1238,3.1431 277.8395,20.1137 L 357.0355,99.3097 Z" fill="#000000" />
        <path d="M 515.4274,110.6234 C 509.7706,161.5351 498.4569,195.4762 481.4863,223.7605 L 402.2903,144.5645 Z" fill="#000000" />
        <path d="M 345.7218,87.9960 L 311.7807,144.5645 L 357.0355,189.8193 L 413.6040,155.8782 Z" fill="#000000" />
        <path d="M 555.0254,-155.2488 C 481.4863,-115.6508 368.3492,-2.5137 357.0355,99.3097 L 402.2903,144.5645 C 504.1137,133.2508 617.2508,20.1137 656.8488,-53.4254 Z" fill="#000000" />
        <path d="M 555.0254,-155.2488 C 600.2802,-177.8762 651.1919,-194.8468 673.8193,-172.2193 C 696.4468,-149.5919 679.4762,-98.6802 656.8488,-53.4254 Z" fill="#000000" />
      </g>
      <path d="M 311.7807,136.5645 C 266.5258,159.1919 221.2710,215.7605 249.5553,244.0447 C 277.8395,272.3290 334.4081,227.0742 357.0355,181.8193 Z" fill="#ffd800" />
      <path d="M 320.8316,145.6155 C 292.5474,162.5860 260.8690,198.7899 277.8395,215.7605 C 294.8101,232.7310 331.0140,201.0526 347.9845,172.7684 Z" fill="#ff562e" />
      <path d="M 345.7218,79.9960 L 311.7807,136.5645 L 357.0355,181.8193 L 413.6040,147.8782 Z" fill="#546e7a" />
      <path d="M 390.9766,-21.8274 C 340.0649,-16.1706 306.1238,-4.8569 277.8395,12.1137 L 357.0355,91.3097 Z" fill="#0292e1" />
      <path d="M 515.4274,102.6234 C 509.7706,153.5351 498.4569,187.4762 481.4863,215.7605 L 402.2903,136.5645 Z" fill="#0292e1" />
      <path d="M 555.0254,-163.2488 C 481.4863,-123.6508 368.3492,-10.5137 357.0355,91.3097 L 402.2903,136.5645 C 504.1137,125.2508 617.2508,12.1137 656.8488,-61.4254 Z" fill="#bebebe" />
      <path d="M 555.0254,-163.2488 C 600.2802,-185.8762 651.1919,-202.8468 673.8193,-180.2193 C 696.4468,-157.5919 679.4762,-106.6802 656.8488,-61.4254 Z" fill="#e53935" />
      <circle cx="526.7411" cy="-33.1411" r="22.4000" fill="#455a64" />
      <circle cx="453.2020" cy="40.3980" r="14.4000" fill="#455a64" />
    </g>
  </g>
</svg>
