<?xml version="1.0" encoding="UTF-8" standalone="no"?>
<svg
   xmlns:dc="http://purl.org/dc/elements/1.1/"
   xmlns:cc="http://creativecommons.org/ns#"
   xmlns:rdf="http://www.w3.org/1999/02/22-rdf-syntax-ns#"
   xmlns:svg="http://www.w3.org/2000/svg"
   xmlns="http://www.w3.org/2000/svg"
   xmlns:sodipodi="http://sodipodi.sourceforge.net/DTD/sodipodi-0.dtd"
   xmlns:inkscape="http://www.inkscape.org/namespaces/inkscape"
   width="736"
   height="544"
   id="svg11300"
   sodipodi:version="0.32"
   inkscape:version="0.91 r"
   sodipodi:docname="smart.svg"
   version="1.0"
   style="display:inline;enable-background:new">
   <title id="title3004">Paper Icon Theme</title>
   <defs id="defs3">
     <filter inkscape:collect="always" style="color-interpolation-filters:sRGB" id="filter4324" x="-0.024" width="1.048" y="-0.024" height="1.048">
       <feGaussianBlur inkscape:collect="always" stdDeviation="4.48" id="feGaussianBlur4326" />
     </filter>
     <filter
        inkscape:collect="always"
        style="color-interpolation-filters:sRGB"
        id="filter4247"
        x="-0.027272727"
        width="1.0545455"
        y="-0.02142857"
        height="1.0428571">
       <feGaussianBlur
          inkscape:collect="always"
          stdDeviation="4"
          id="feGaussianBlur4249" />
     </filter>
     <filter
        inkscape:collect="always"
        style="color-interpolation-filters:sRGB"
        id="filter4253"
        x="-0.059999999"
        width="1.12"
        y="-0.059999999"
        height="1.12">
       <feGaussianBlur
          inkscape:collect="always"
          stdDeviation="6"
          id="feGaussianBlur4255" />
     </filter>
   </defs>
   <g style="display:inline" inkscape:groupmode="layer" inkscape:label="Icon" id="layer1" transform="translate(0,244)">
     <g style="display:none" inkscape:label="Baseplate" id="layer7" inkscape:groupmode="layer">
       <text y="337.74512" xml:space="preserve" x="15.006836" style="font-style:normal;font-variant:normal;font-weight:normal;font-stretch:normal;font-size:18px;font-family:'DejaVu Sans';-inkscape-font-specification:'DejaVu Sans';display:inline;fill:#000000;fill-opacity:1;stroke:none;enable-background:new" inkscape:label="context" id="context"><tspan y="337.74512" x="15.006836" sodipodi:role="line" id="tspan3933">devices</tspan></text>
       <text y="337.74512" xml:space="preserve" x="142.48828" style="font-style:normal;font-variant:normal;font-weight:bold;font-stretch:normal;font-size:18px;line-height:125%;font-family:'DejaVu Sans';-inkscape-font-specification:'DejaVu Sans Bold';text-align:start;writing-mode:lr-tb;text-anchor:start;display:inline;fill:#000000;fill-opacity:1;stroke:none;enable-background:new" sodipodi:linespacing="125%" inkscape:label="icon-name" id="icon-name"><tspan y="337.74512" x="142.48828" sodipodi:role="line" id="tspan3937">smart</tspan></text>
       <rect style="display:inline;overflow:visible;visibility:visible;fill:#d3d7cf;fill-opacity:1;fill-rule:nonzero;stroke:none;stroke-width:2;marker:none;enable-background:accumulate" id="rect16x16" width="16" height="16" x="-32" y="268" inkscape:label="16x16" transform="scale(-1,1)" />
       <rect style="display:inline;overflow:visible;visibility:visible;fill:#d3d7cf;fill-opacity:1;fill-rule:nonzero;stroke:none;stroke-width:2;marker:none;enable-background:accumulate" id="rect24x24" width="24" height="24" x="-76" y="260" inkscape:label="24x24" transform="scale(-1,1)" />
       <rect style="display:inline;overflow:visible;visibility:visible;fill:#d3d7cf;fill-opacity:1;fill-rule:nonzero;stroke:none;stroke-width:2;marker:none;enable-background:accumulate" id="rect32x32" width="32" height="32" x="-128" y="252" inkscape:label="32x32" transform="scale(-1,1)" />
       <rect inkscape:label="48x48" y="236" x="-192" height="48" width="48" id="rect48x48" style="display:inline;overflow:visible;visibility:visible;fill:#d3d7cf;fill-opacity:1;fill-rule:nonzero;stroke:none;stroke-width:2;marker:none;enable-background:accumulate" transform="scale(-1,1)" />
       <rect style="display:inline;overflow:visible;visibility:visible;fill:#d3d7cf;fill-opacity:1;fill-rule:nonzero;stroke:none;stroke-width:2;marker:none;enable-background:accumulate" id="rect3951" width="512" height="512" x="-720" y="-228" inkscape:label="48x48" transform="scale(-1,1)" />
     </g>
     <g inkscape:groupmode="layer" inkscape:label="Symbols" id="layer6" style="display:inline">
       <!-- 16x16 -->
       <!-- Drive body -->
       <rect ry="1" rx="1" y="-31" x="-284" height="14" width="16" style="fill:#78909c;fill-opacity:1;stroke:none" transform="matrix(0,-1,-1,0,0,0)" />
       <path style="display:inline;opacity:0.1;fill:#ffffff;fill-opacity:1;stroke:none;enable-background:new" d="m 18,268 c -0.554,0 -1,0.446 -1,1 l 0,1 c 0,-0.554 0.446,-1 1,-1 l 12,0 c 0.554,0 1,0.446 1,1 l 0,-1 c 0,-0.554 -0.446,-1 -1,-1 l -12,0 z" />
       <!-- Platter -->
       <path style="display:inline;opacity:0.1;fill:#ffffff;fill-opacity:1;stroke:none;enable-background:new" d="m 24,272 c 2.209136,0 4,1.79086 4,4 0,2.20914 -1.790864,4 -4,4 l -4,0 0,-4 c 0,-2.20914 1.790856,-4 4,-4 z m 0,2 c -1.104576,0 -2,0.89542 -2,2 0,1.10457 0.895424,2 2,2 1.104568,0 2,-0.89543 2,-2 0,-1.10458 -0.895432,-2 -2,-2 z" />
       <path d="m 24,271 c 2.209136,0 4,1.79086 4,4 0,2.20914 -1.790864,4 -4,4 l -4,0 0,-4 c 0,-2.20914 1.790856,-4 4,-4 z m 0,2 c -1.104576,0 -2,0.89542 -2,2 0,1.10457 0.895424,2 2,2 1.104568,0 2,-0.89543 2,-2 0,-1.10458 -0.895432,-2 -2,-2 z" style="display:inline;opacity:1;fill:#455a64;fill-opacity:1;stroke:none;enable-background:new" />
       <!-- Blue info circle -->
       <circle cx="27.5" cy="279.5" r="4.5" fill="#2196f3" style="stroke:none" />
       <!-- White "i" pictogram -->
       <g transform="translate(27.5, 280.0) scale(0.65) translate(-24, -276)">
         <g transform="matrix(-1,0,0,-1,577.0002,-69)">
           <path d="m 552.0002,-349 0,4 2,0 0,-4 z m 0,8 0,2 2,0 0,-2 z" fill="#ffffff" stroke="#ffffff" stroke-width="1" />
         </g>
       </g>

       <!-- 24x24 -->
       <!-- Drive body -->
       <rect ry="1.5" rx="1.5" y="-73" x="-283" height="18" width="22" style="fill:#78909c;fill-opacity:1;stroke:none" transform="matrix(0,-1,-1,0,0,0)" />
       <path style="opacity:0.1;fill:#ffffff;fill-opacity:1;stroke:none" d="m 56.5,261 c -0.831,0 -1.5,0.669 -1.5,1.5 l 0,1 c 0,-0.831 0.669,-1.5 1.5,-1.5 l 15,0 c 0.831,0 1.5,0.669 1.5,1.5 l 0,-1 c 0,-0.831 -0.669,-1.5 -1.5,-1.5 z" />
       <path style="opacity:0.2;fill:#000000;fill-opacity:1;stroke:none" d="m 56.5,284 c -0.831,0 -1.5,-0.669 -1.5,-1.5 l 0,-1 c 0,0.831 0.669,1.5 1.5,1.5 l 15,0 c 0.831,0 1.5,-0.669 1.5,-1.5 l 0,1 c 0,0.831 -0.669,1.5 -1.5,1.5 z" />
       <!-- Platter -->
       <path style="display:inline;opacity:0.1;fill:#ffffff;fill-opacity:1;stroke:none;enable-background:new" d="m 64,266 c 2.76142,0 5,2.23857 5,5 0,2.76143 -2.23858,5 -5,5 l -5,0 0,-5 c 0,-2.76143 2.23857,-5 5,-5 z m 0,2.5 c -1.38072,0 -2.5,1.11928 -2.5,2.5 0,1.38071 1.11928,2.5 2.5,2.5 1.38071,0 2.5,-1.11929 2.5,-2.5 0,-1.38072 -1.11929,-2.5 -2.5,-2.5 z" />
       <path style="display:inline;opacity:1;fill:#455a64;fill-opacity:1;stroke:none;enable-background:new" d="m 64,265 c 2.76142,0 5,2.23857 5,5 0,2.76143 -2.23858,5 -5,5 l -5,0 0,-5 c 0,-2.76143 2.23857,-5 5,-5 z m 0,2.5 c -1.38072,0 -2.5,1.11928 -2.5,2.5 0,1.38071 1.11928,2.5 2.5,2.5 1.38071,0 2.5,-1.11929 2.5,-2.5 0,-1.38072 -1.11929,-2.5 -2.5,-2.5 z" />
       <!-- Blue info circle -->
       <circle cx="70" cy="278" r="6" fill="#000000" opacity="0.2" style="stroke:none" />
       <circle cx="70" cy="277" r="6" fill="#2196f3" style="stroke:none" />
       <!-- White "i" pictogram -->
       <g transform="translate(70, 277.5) scale(0.65) translate(-64, -272)">
         <g transform="matrix(-1,0,0,-1,617.0002,-75)">
           <path d="m 552.0002,-353 0,8 2,0 0,-8 z m 0,12 0,2 2,0 0,-2 z" fill="#ffffff" stroke="#ffffff" stroke-width="1" />
         </g>
       </g>

       <!-- 32x32 -->
       <!-- Drive body -->
       <rect ry="2" rx="2" y="-123" x="-282" height="22" width="28.000031" style="fill:#78909c;fill-opacity:1;stroke:none" transform="matrix(0,-1,-1,0,0,0)" />
       <path style="opacity:0.1;fill:#ffffff;fill-opacity:1;stroke:none" d="m 103,254 c -1.108,0 -2,0.892 -2,2 l 0,1 c 0,-1.108 0.892,-2 2,-2 l 18,0 c 1.108,0 2,0.892 2,2 l 0,-1 c 0,-1.108 -0.892,-2 -2,-2 l -18,0 z" />
       <path style="opacity:0.2;fill:#000000;fill-opacity:1;stroke:none" d="m 103,283 c -1.108,0 -2,-0.892 -2,-2 l 0,-1 c 0,1.108 0.892,2 2,2 l 18,0 c 1.108,0 2,-0.892 2,-2 l 0,1 c 0,1.108 -0.892,2 -2,2 l -18,0 z" />
       <!-- Platter -->
       <path style="display:inline;opacity:0.1;fill:#ffffff;fill-opacity:1;stroke:none;enable-background:new" d="m 112,259 c -3.866,0 -7,3.134 -7,7 l 0,7 7,0 c 3.86599,0 7,-3.134 7,-7 0,-3.866 -3.13401,-7 -7,-7 z m 0,4 a 3,3 0 0 1 3,3 3,3 0 0 1 -3,3 3,3 0 0 1 -3,-3 3,3 0 0 1 3,-3 z" />
       <path d="M 112 502 C 108.134 502 105 505.134 105 509 L 105 516 L 112 516 C 115.86599 516 119 512.866 119 509 C 119 505.134 115.86599 502 112 502 z M 112 506 A 3 3 0 0 1 115 509 A 3 3 0 0 1 112 512 A 3 3 0 0 1 109 509 A 3 3 0 0 1 112 506 z " style="display:inline;opacity:1;fill:#455a64;fill-opacity:1;stroke:none;enable-background:new" transform="translate(0,-244)" />
       <!-- Blue info circle -->
       <circle cx="120" cy="276" r="8" fill="#000000" opacity="0.2" style="stroke:none" />
       <circle cx="120" cy="275" r="8" fill="#2196f3" style="stroke:none" />
       <!-- White "i" pictogram -->
       <g transform="translate(120, 275.8) scale(0.65) translate(-112, -268)">
         <g transform="matrix(-1.5,0,0,-1.5,941.0003,-251.5)">
           <path d="m 552.0002,-351.66667 0,7.33334 1.33333,0 0,-7.33334 z m 0,11.33334 0,1.33333 1.33333,0 0,-1.33333 z" fill="#ffffff" stroke="#ffffff" stroke-width="1" />
         </g>
       </g>

       <!-- 48x48 -->
       <!-- Drive body -->
       <rect ry="2" rx="2" y="-184" x="-280" height="32" width="40.000061" style="fill:#78909c;fill-opacity:1;stroke:none" transform="matrix(0,-1,-1,0,0,0)" />
       <path style="opacity:0.1;fill:#ffffff;fill-opacity:1;stroke:none" d="m 154,240 c -1.108,0 -2,0.892 -2,2 l 0,1 c 0,-1.108 0.892,-2 2,-2 l 28,0 c 1.108,0 2,0.892 2,2 l 0,-1 c 0,-1.108 -0.892,-2 -2,-2 l -28,0 z" />
       <path style="opacity:0.2;fill:#000000;fill-opacity:1;stroke:none" d="m 154,281 c -1.108,0 -2,-0.892 -2,-2 l 0,-1 c 0,1.108 0.892,2 2,2 l 28,0 c 1.108,0 2,-0.892 2,-2 l 0,1 c 0,1.108 -0.892,2 -2,2 l -28,0 z" />
       <!-- Platter -->
       <path style="display:inline;opacity:0.05;fill:#ffffff;fill-opacity:1;stroke:none;enable-background:new" d="m 168,247 c 5.52285,0 10,4.47715 10,10 0,5.52285 -4.47715,10 -10,10 l -10,0 0,-10 c 0,-5.52285 4.47715,-10 10,-10 z m 0,5 c -2.76143,0 -5,2.23857 -5,5 0,2.76142 2.23857,5 5,5 2.76142,0 5,-2.23858 5,-5 0,-2.76143 -2.23858,-5 -5,-5 z" />
       <path d="m 168,246 c 5.52285,0 10,4.47715 10,10 0,5.52285 -4.47715,10 -10,10 l -10,0 0,-10 c 0,-5.52285 4.47715,-10 10,-10 z m 0,5 c -2.76143,0 -5,2.23857 -5,5 0,2.76142 2.23857,5 5,5 2.76142,0 5,-2.23858 5,-5 0,-2.76143 -2.23858,-5 -5,-5 z" style="display:inline;opacity:1;fill:#455a64;fill-opacity:1;stroke:none;enable-background:new" />
       <!-- Blue info circle -->
       <circle cx="180" cy="272" r="12" fill="#000000" opacity="0.2" style="stroke:none" />
       <circle cx="180" cy="271" r="12" fill="#2196f3" style="stroke:none" />
       <!-- White "i" pictogram -->
       <g transform="translate(180, 272.0) scale(0.65) translate(-168, -260)">
         <g transform="matrix(-2,0,0,-2,1274.0003,-434)">
           <path d="m 552.0002,-353 0,8 2,0 0,-8 z m 0,12 0,2 2,0 0,-2 z" fill="#ffffff" stroke="#ffffff" stroke-width="1" />
         </g>
       </g>

       <!-- 512x512 -->
       <!-- Drive body shadow -->
       <rect ry="24" rx="24" y="-640" x="-256" height="352" width="448" style="opacity:0.1;fill:#000000;fill-opacity:1;stroke:#000000;stroke-width:8;stroke-miterlimit:4;stroke-dasharray:none;stroke-opacity:1;filter:url(#filter4247)" transform="matrix(0,-1,-1,0,0,0)" />
       <rect ry="24" rx="24" y="-640" x="-256" height="352" width="448" style="opacity:0.2;fill:#000000;fill-opacity:1;stroke:none;filter:url(#filter4247)" transform="matrix(0,-1,-1,0,0,0)" />
       <!-- Drive body main -->
       <rect ry="24" rx="24" y="-640" x="-252" height="352" width="448" style="fill:#78909c;fill-opacity:1;stroke:none" transform="matrix(0,-1,-1,0,0,0)" />
       <!-- Drive body highlight/shadow -->
       <path d="m 312,254 c -13.296,0 -24,-10.704 -24,-24 l 0,-2 c 0,13.296 10.704,24 24,24 l 304,0 c 13.296,0 24,-10.704 24,-24 l 0,2 c 0,13.296 -10.704,24 -24,24 l -304,0 z" style="opacity:0.2;fill:#000000;fill-opacity:1;stroke:none" />
       <path d="m 312,-196 c -13.296,0 -24,10.704 -24,24 l 0,2 c 0,-13.296 10.704,-24 24,-24 l 304,0 c 13.296,0 24,10.704 24,24 l 0,-2 c 0,-13.296 -10.704,-24 -24,-24 l -304,0 z" style="opacity:0.2;fill:#ffffff;fill-opacity:1;stroke:none" />
       <!-- Platter -->
       <path d="m 464,-130 c 61.85592,0 112,50.14408 112,112 0,61.85592 -50.14408,112 -112,112 l -112,0 0,-112 c 0,-61.85592 50.14408,-112 112,-112 z m 0,56 c -30.928,0 -56,25.072 -56,56 0,30.92792 25.072,56 56,56 30.92792,0 56,-25.07208 56,-56 0,-30.928 -25.07208,-56 -56,-56 z" style="display:inline;opacity:0.2;fill:#ffffff;fill-opacity:1;stroke:none;enable-background:new" />
       <path d="m 464,-132 c 61.85592,0 112,50.14408 112,112 0,61.85592 -50.14408,112 -112,112 l -112,0 0,-112 c 0,-61.85592 50.14408,-112 112,-112 z m 0,56 c -30.928,0 -56,25.072 -56,56 0,30.92792 25.072,56 56,56 30.92792,0 56,-25.07208 56,-56 0,-30.928 -25.07208,-56 -56,-56 z" style="display:inline;opacity:1;fill:#455a64;fill-opacity:1;stroke:none;enable-background:new" />
       <!-- Blue info circle shadow -->
       <circle cx="584" cy="156" r="120" style="opacity:0.5;fill:#000000;filter:url(#filter4253)" />
       <!-- Blue info circle main -->
       <circle cx="584" cy="148" r="120" fill="#2196f3" style="stroke:none" />
       <!-- White "i" pictogram -->
       <g transform="translate(584, 160) scale(0.6) translate(-464, -28)">
         <g transform="matrix(-20,0,0,-20,11524.004,-6912)">
           <path d="m 552.0002,-353 0,8 2,0 0,-8 z m 0,12 0,2 2,0 0,-2 z" fill="#ffffff" stroke="#ffffff" stroke-width="1" />
         </g>
       </g>
     </g>
   </g>
</svg>
