<?xml version="1.0" encoding="UTF-8" standalone="no"?>
<!-- Created with Inkscape (http://www.inkscape.org/) -->

<svg
   xmlns:dc="http://purl.org/dc/elements/1.1/"
   xmlns:cc="http://creativecommons.org/ns#"
   xmlns:rdf="http://www.w3.org/1999/02/22-rdf-syntax-ns#"
   xmlns:svg="http://www.w3.org/2000/svg"
   xmlns="http://www.w3.org/2000/svg"
   xmlns:sodipodi="http://sodipodi.sourceforge.net/DTD/sodipodi-0.dtd"
   xmlns:inkscape="http://www.inkscape.org/namespaces/inkscape"
   width="736"
   height="544"
   id="svg11300"
   sodipodi:version="0.32"
   inkscape:version="0.91 r"
   sodipodi:docname="uefi.svg"
   version="1.0"
   style="display:inline;enable-background:new">
  <title id="title3004">Paper Icon Theme Template</title>
  <metadata
     id="metadata4">
    <rdf:RDF>
      <cc:Work
         rdf:about="">
        <dc:format>image/svg+xml</dc:format>
        <dc:type
           rdf:resource="http://purl.org/dc/dcmitype/StillImage" />
        <dc:creator>
          <cc:Agent>
            <dc:title>Sam Hewitt</dc:title>
          </cc:Agent>
        </dc:creator>
        <dc:source />
        <cc:license
           rdf:resource="http://creativecommons.org/licenses/by-sa/3.0/" />
        <dc:title>Paper Icon Theme Template</dc:title>
        <dc:subject>
          <rdf:Bag />
        </dc:subject>
        <dc:date />
        <dc:rights>
          <cc:Agent>
            <dc:title />
          </cc:Agent>
        </dc:rights>
        <dc:publisher>
          <cc:Agent>
            <dc:title />
          </cc:Agent>
        </dc:publisher>
        <dc:identifier />
        <dc:relation />
        <dc:language />
        <dc:coverage />
        <dc:description />
        <dc:contributor>
          <cc:Agent>
            <dc:title />
          </cc:Agent>
        </dc:contributor>
      </cc:Work>
      <cc:Work
         rdf:about="">
        <dc:format>image/svg+xml</dc:format>
        <dc:type
           rdf:resource="http://purl.org/dc/dcmitype/StillImage" />
      </cc:Work>
      <cc:License
         rdf:about="http://creativecommons.org/licenses/by-sa/3.0/">
        <cc:permits
           rdf:resource="http://creativecommons.org/ns#Reproduction" />
        <cc:permits
           rdf:resource="http://creativecommons.org/ns#Distribution" />
        <cc:requires
           rdf:resource="http://creativecommons.org/ns#Notice" />
        <cc:requires
           rdf:resource="http://creativecommons.org/ns#Attribution" />
        <cc:permits
           rdf:resource="http://creativecommons.org/ns#DerivativeWorks" />
        <cc:requires
           rdf:resource="http://creativecommons.org/ns#ShareAlike" />
      </cc:License>
    </rdf:RDF>
  </metadata>
  <g style="display:inline" inkscape:groupmode="layer" inkscape:label="Icon" id="layer1" transform="translate(0,244)">
    <g style="display:none" inkscape:label="Baseplate" id="layer7" inkscape:groupmode="layer">
      <text
         y="337.74512"
         xml:space="preserve"
         x="15.006836"
         style="font-style:normal;font-variant:normal;font-weight:normal;font-stretch:normal;font-size:18px;font-family:'DejaVu Sans';-inkscape-font-specification:'DejaVu Sans';display:inline;fill:#000000;fill-opacity:1;stroke:none;enable-background:new"
         inkscape:label="context"
         id="context"><tspan
            style="font-style:normal;font-variant:normal;font-weight:normal;font-stretch:normal;font-family:'DejaVu Sans';-inkscape-font-specification:'DejaVu Sans'"
            y="337.74512"
            x="15.006836"
            sodipodi:role="line"
            id="tspan3933">logos</tspan></text>
      <text
         y="337.74512"
         xml:space="preserve"
         x="142.48828"
         style="font-style:normal;font-variant:normal;font-weight:bold;font-stretch:normal;font-size:18px;line-height:125%;font-family:'DejaVu Sans';-inkscape-font-specification:'DejaVu Sans Bold';text-align:start;writing-mode:lr-tb;text-anchor:start;display:inline;fill:#000000;fill-opacity:1;stroke:none;enable-background:new"
         sodipodi:linespacing="125%"
         inkscape:label="icon-name"
         id="icon-name"><tspan
            style="font-style:normal;font-variant:normal;font-weight:bold;font-stretch:normal;font-size:18px;font-family:'DejaVu Sans';-inkscape-font-specification:'DejaVu Sans Bold'"
            y="337.74512"
            x="142.48828"
            sodipodi:role="line"
            id="tspan3937">uefi</tspan></text>
      <rect style="display:inline;fill:#d3d7cf;stroke:none" id="rect16x16" width="16" height="16" x="-32" y="268" transform="scale(-1,1)" />
      <rect style="display:inline;fill:#d3d7cf;stroke:none" id="rect24x24" width="24" height="24" x="-76" y="260" transform="scale(-1,1)" />
      <rect style="display:inline;fill:#d3d7cf;stroke:none" id="rect32x32" width="32" height="32" x="-128" y="252" transform="scale(-1,1)" />
      <rect style="display:inline;fill:#d3d7cf;stroke:none" id="rect48x48" width="48" height="48" x="-192" y="236" transform="scale(-1,1)" />
      <rect style="display:inline;fill:#d3d7cf;stroke:none" id="rect3951" width="512" height="512" x="-720" y="-228" transform="scale(-1,1)" />
    </g>
    <g inkscape:groupmode="layer" id="layer6" inkscape:label="Symbols" style="display:inline">
      <!-- 16x16 -->
      <path d="M23.9829 268.2825l0.4714 0.0006 2.255 1.2894 0.0238 0.5154 0.9016 0.0143L29.8593 271.3748l0.6172 1.1416 0.1934 7.2621L30.2508 280.403l-2.1424 1.23-0.7369-0.0682-0.5015 0.7793-2.1247 1.2205-3.378-1.234L17.236 279.7782 17.3537 272.1277z" fill="#FFF" style="stroke:none" />
      <path d="M23.9593 268l0.4949 0.2831-3.2553 1.9028S20.214 270.6821 19.8644 271.0645c-0.4279 0.4681-0.2982 1.1347 0.0814 1.6 0.9301 1.1405 3.3394 2.0477 5.3153 1.3017C26.0982 273.6501 29.8593 271.3748 29.8593 271.3748l1.0696 0.6118v8.0271l-0.678 0.3893V275.8102l-2.1424 1.2301v4.5927l-1.2384 0.7111V279.7153l0.7638-0.461v-1.9414l-0.7638 0.4386s-0.0893-1.2087 0.0723-1.6159c0.1544-0.3883 0.5928-0.8181 0.9492-0.7051 0.2618 0.0832 0.2169 0.9397 0.2169 0.9397s1.6177-0.936 2.1424-1.2377c0.0847-1.3687-0.3439-2.2222-1.6542-2.0881-0.5977 0.0614-1.0685 0.3774-1.4644 0.6508-0.4196 0.29-0.7684 0.6235-1.0847 1.0034-0.5985 0.7194-1.2437 1.7047-1.3288 2.8746-0.0667 0.9174 0.0267 5.9913 0.0267 5.9913L23.9864 284 17.0712 280.0136V271.9864L23.9593 268zM21.4102 274.2915c-0.5016-0.4124-1.1193-0.7988-1.7898-0.9492-0.4498-0.1009-0.9013-0.0425-1.2203 0.1356-0.841 0.4695-1.0864 1.7114-1.0034 2.9288 0.1321 1.9377 0.8311 3.2447 1.8441 4.2576 0.6771 0.6771 1.7919 1.4938 2.7932 1.5729 1.0434 0.0824 1.3685-0.6035 1.6-1.3831-0.7893-0.5395-1.6672-0.9904-2.4678-1.5186-0.1473 0.1126-0.1345 0.2383-0.3525 0.2441-0.194 0.0051-0.4126-0.178-0.5424-0.3525-0.2294-0.3085-0.3023-0.793-0.3254-1.1661 1.2723 0.6803 2.4995 1.4055 3.7695 2.0881 0.1389-2.5337-0.8702-4.678-2.3051-5.8576zM27.6347 270.1022l-3.2315 1.9861s-0.8606 0.5579-1.4364 0.4947c-0.1879-0.0207-0.5013-0.1797-0.5153-0.3254-0.0264-0.2697 0.9492-0.7917 0.9492-0.7917l3.3085-1.8934L27.6347 270.1017zM21.1932 277.0847c-0.423-0.2188-0.8273-0.4563-1.2203-0.7051 0.0389-0.2984 0.0918-0.5893 0.461-0.5153 0.4328 0.0867 0.7464 0.7791 0.7593 1.2203z" fill="#DC0000" style="stroke:none" />

      <!-- 24x24 -->
      <path d="M63.9743 260.4237l0.7071 0.0009 3.3825 1.9341 0.0357 0.7731 1.3524 0.0215L72.7889 265.0621l0.9258 1.7124 0.2902 10.8931L73.3763 278.6045l-3.2136 1.845-1.1053-0.1023-0.7523 1.1689-3.187 1.8307-5.0671-1.8511L53.854 277.6672 54.0305 266.1915z" fill="#FFF" style="stroke:none" />
      <path d="M63.939 260l0.7424 0.4246-4.8829 2.8542S58.3211 264.0232 57.7966 264.5967c-0.6419 0.7021-0.4473 1.702 0.122 2.4 1.3951 1.7107 5.009 3.0716 7.9729 1.9525C67.1472 268.4751 72.7889 265.0621 72.7889 265.0621l1.6044 0.9177v12.0407l-1.0169 0.584V271.7153l-3.2136 1.8452v6.8891l-1.8576 1.0667V277.5729l1.1458-0.6915v-2.912l-1.1458 0.658s-0.1339-1.813 0.1085-2.4238c0.2316-0.5825 0.8893-1.2271 1.4237-1.0576 0.3927 0.1249 0.3254 1.4096 0.3254 1.4096s2.4266-1.404 3.2136-1.8565c0.1271-2.0531-0.5158-3.3333-2.4814-3.1322-0.8966 0.0921-1.6028 0.5661-2.1966 0.9763-0.6294 0.435-1.1525 0.9353-1.6271 1.5051-0.8977 1.0791-1.8655 2.5571-1.9932 4.3119-0.1 1.3761 0.0401 8.987 0.0401 8.987L63.9797 284 53.6068 278.0203V265.9797L63.939 260zM60.1153 269.4373c-0.7524-0.6186-1.679-1.1982-2.6847-1.4237-0.6747-0.1513-1.352-0.0637-1.8305 0.2034-1.2615 0.7043-1.6296 2.5671-1.5051 4.3932 0.1982 2.9065 1.2466 4.867 2.7661 6.3864 1.0156 1.0156 2.6879 2.2407 4.1898 2.3593 1.5651 0.1236 2.0528-0.9053 2.4-2.0746-1.184-0.8093-2.5008-1.4856-3.7017-2.278-0.2209 0.1689-0.2018 0.3575-0.5288 0.3661-0.291 0.0076-0.6189-0.2671-0.8136-0.5288-0.3441-0.4627-0.4534-1.1895-0.4881-1.7492 1.9085 1.0205 3.7493 2.1083 5.6542 3.1322 0.2084-3.8006-1.3053-7.0169-3.4576-8.7864zM69.452 263.1533l-4.8472 2.9792s-1.291 0.8369-2.1546 0.742c-0.2819-0.0311-0.752-0.2695-0.7729-0.4881-0.0395-0.4045 1.4237-1.1876 1.4237-1.1876l4.9627-2.8401L69.452 263.1525zM59.7898 273.6271c-0.6345-0.3282-1.241-0.6844-1.8305-1.0576 0.0583-0.4476 0.1377-0.8839 0.6915-0.7729 0.6492 0.1301 1.1196 1.1687 1.139 1.8305z" fill="#DC0000" style="stroke:none" />

      <!-- 32x32 -->
      <path d="M111.9657 252.565l0.9427 0.0012 4.51 2.5788 0.0476 1.0307 1.8032 0.0286L123.7186 258.7495l1.2344 2.2832 0.3869 14.5241L124.5017 276.806l-4.2847 2.46-1.4737-0.1363-1.003 1.5586-4.2493 2.441-6.7561-2.4681L98.4719 275.5563 98.7073 260.2554z" fill="#FFF" style="stroke:none" />
      <path d="M111.9186 252l0.9898 0.5662-6.5105 3.8056S104.4281 257.3642 103.7288 258.129c-0.8559 0.9362-0.5964 2.2693 0.1627 3.2 1.8601 2.281 6.6787 4.0954 10.6305 2.6034C116.1963 263.3002 123.7186 258.7495 123.7186 258.7495l2.1391 1.2236v16.0542l-1.3559 0.7787V267.6203l-4.2847 2.4603v9.1855l-2.4768 1.4222V275.4305l1.5277-0.922v-3.8827l-1.5277 0.8773s-0.1785-2.4173 0.1446-3.2318c0.3089-0.7766 1.1857-1.6362 1.8983-1.4102 0.5235 0.1665 0.4339 1.8795 0.4339 1.8795s3.2354-1.8719 4.2847-2.4753c0.1695-2.7375-0.6878-4.4444-3.3085-4.1763-1.1955 0.1228-2.1371 0.7548-2.9288 1.3017-0.8392 0.58-1.5367 1.2471-2.1695 2.0068-1.197 1.4388-2.4874 3.4094-2.6576 5.7492-0.1333 1.8348 0.0535 11.9827 0.0535 11.9827L111.9729 284 98.1424 276.0271V259.9729L111.9186 252zM106.8203 264.5831c-1.0032-0.8249-2.2386-1.5976-3.5797-1.8983-0.8996-0.2017-1.8026-0.085-2.4407 0.2712-1.682 0.9391-2.1728 3.4227-2.0068 5.8576 0.2643 3.8753 1.6621 6.4893 3.6881 8.5153 1.3542 1.3542 3.5839 2.9876 5.5864 3.1458 2.0868 0.1647 2.7371-1.207 3.2-2.7661-1.5786-1.079-3.3345-1.9809-4.9356-3.0373-0.2945 0.2252-0.2691 0.4767-0.7051 0.4881-0.3879 0.0102-0.8252-0.3561-1.0847-0.7051-0.4588-0.6169-0.6046-1.586-0.6508-2.3322 2.5446 1.3606 4.9991 2.8111 7.539 4.1763 0.2778-5.0674-1.7404-9.3559-4.6102-11.7153zM119.2693 256.2044l-6.4629 3.9723s-1.7213 1.1159-2.8728 0.9894c-0.3759-0.0414-1.0026-0.3593-1.0305-0.6508-0.0527-0.5394 1.8983-1.5834 1.8983-1.5834l6.6169-3.7868L119.2693 256.2034zM106.3864 270.1695c-0.846-0.4377-1.6547-0.9125-2.4407-1.4102 0.0777-0.5968 0.1837-1.1785 0.922-1.0305 0.8655 0.1735 1.4928 1.5583 1.5186 2.4407z" fill="#DC0000" style="stroke:none" />

      <!-- 48x48 -->
      <path d="M167.9486 236.8475l1.4141 0.0018 6.765 3.8681 0.0714 1.5461 2.7049 0.0429L185.5779 246.1243l1.8515 3.4249 0.5803 21.7862L186.7525 273.209l-6.4271 3.6901-2.2106-0.2045-1.5045 2.3379-6.374 3.6615-10.1341-3.7021L147.7079 271.3345 148.061 248.3831z" fill="#FFF" style="stroke:none" />
      <path d="M167.878 236l1.4847 0.8493-9.7658 5.7085S156.6421 244.0463 155.5932 245.1934c-1.2838 1.4043-0.8946 3.404 0.2441 4.8 2.7902 3.4215 10.0181 6.1432 15.9458 3.9051C174.2945 252.9503 185.5779 246.1243 185.5779 246.1243l3.2087 1.8354v24.0814l-2.0339 1.168V259.4305l-6.4271 3.6904v13.7782l-3.7153 2.1333V271.1458l2.2915-1.3831v-5.8241l-2.2915 1.3159s-0.2678-3.626 0.2169-4.8477c0.4633-1.165 1.7785-2.4542 2.8475-2.1153 0.7853 0.2497 0.6508 2.8192 0.6508 2.8192s4.8531-2.8079 6.4271-3.713c0.2542-4.1062-1.0316-6.6667-4.9627-6.2644-1.7932 0.1842-3.2056 1.1322-4.3932 1.9525-1.2588 0.8701-2.3051 1.8706-3.2542 3.0102-1.7955 2.1582-3.7311 5.1141-3.9864 8.6237-0.2 2.7522 0.0802 17.974 0.0802 17.974L167.9593 284 147.2136 272.0407V247.9593L167.878 236zM160.2305 254.8746c-1.5049-1.2373-3.358-2.3964-5.3695-2.8475-1.3494-0.3026-2.704-0.1275-3.661 0.4068-2.5229 1.4086-3.2592 5.1341-3.0102 8.7864 0.3964 5.813 2.4932 9.734 5.5322 12.7729 2.0313 2.0313 5.3758 4.4814 8.3797 4.7186 3.1302 0.2471 4.1056-1.8105 4.8-4.1492-2.3679-1.6185-5.0017-2.9713-7.4034-4.5559-0.4418 0.3379-0.4036 0.715-1.0576 0.7322-0.5819 0.0153-1.2379-0.5341-1.6271-1.0576-0.6881-0.9254-0.9069-2.379-0.9763-3.4983 3.8169 2.0409 7.4986 4.2166 11.3085 6.2644 0.4167-7.6011-2.6106-14.0339-6.9153-17.5729zM178.904 242.3066l-9.6944 5.9584s-2.5819 1.6738-4.3092 1.4841c-0.5638-0.0621-1.504-0.539-1.5458-0.9763-0.0791-0.809 2.8475-2.3751 2.8475-2.3751l9.9254-5.6802L178.904 242.3051zM159.5797 263.2542c-1.2689-0.6565-2.482-1.3688-3.661-2.1153 0.1166-0.8951 0.2755-1.7678 1.3831-1.5458 1.2983 0.2602 2.2392 2.3374 2.278 3.661z" fill="#DC0000" style="stroke:none" />

      <!-- 512x512 -->
      <path d="M463.4516-218.9605l15.084 0.0193 72.1597 41.2601 0.7617 16.4918 28.8518 0.458L651.4971-120.0075l19.7496 36.5318 6.1903 232.3863L664.0271 168.8964l-68.5559 39.3606-23.58-2.1815-16.0482 24.9371-67.9895 39.0557-108.0973-39.4896L247.551 148.9009 251.3175-95.9141z" fill="#FFF" style="stroke:none" />
      <path d="M462.6983-228l15.8373 9.0588-104.1681 60.8904S342.8496-142.1725 331.661-129.9366c-13.6943 14.9791-9.5421 36.3089 2.6034 51.2 29.7618 36.4957 106.8595 65.5271 170.0881 41.6542C531.1409-47.197 651.4971-120.0075 651.4971-120.0075l34.2261 19.5773v256.8678l-21.6949 12.4589V21.9254l-68.5559 39.3642v146.9674l-39.6294 22.7556V146.8881l24.4429-14.7525v-62.1234l-24.4429 14.0366s-2.8565-38.6772 2.3141-51.7086c4.9416-12.4264 18.971-26.1785 30.3729-22.5627 8.3766 2.6637 6.9424 30.0716 6.9424 30.0716s51.7665-29.951 68.5559-39.6053c2.7119-43.7996-11.0041-71.1111-52.9356-66.8203-19.1277 1.9646-34.1936 12.0768-46.861 20.8271-13.4267 9.2806-24.5876 19.9533-34.7119 32.1085-19.1518 23.0207-39.7981 54.5507-42.522 91.9864-2.1333 29.3568 0.8557 191.7228 0.8557 191.7228L463.5661 284 242.278 156.4339V-100.4339L462.6983-228zM381.1254-26.6712c-16.0518-13.1977-35.8183-25.5614-57.2746-30.3729-14.3934-3.2277-28.8422-1.3595-39.0508 4.339-26.9113 15.0249-34.7649 54.764-32.1085 93.722 4.2281 62.0053 26.5944 103.8295 59.0102 136.2441 21.6672 21.6672 57.3421 47.8011 89.3831 50.3322 33.3885 2.6359 43.7936-19.3121 51.2-44.2576-25.2577-17.2643-53.3514-31.6939-78.9695-48.5966-4.7126 3.6038-4.3052 7.627-11.2814 7.8102-6.2072 0.1627-13.2038-5.6973-17.3559-11.2814-7.3401-9.8712-9.6735-25.3758-10.4136-37.3153 40.7141 21.7696 79.9855 44.9772 120.6237 66.8203 4.445-81.0787-27.8466-149.6949-73.7627-187.4441zM580.3089-160.7301l-103.4064 63.5565s-27.5405 17.8537-45.9643 15.8301c-6.0143-0.6629-16.0422-5.7492-16.4881-10.4136-0.8437-8.6298 30.3729-25.3348 30.3729-25.3348l105.8712-60.5891L580.3089-160.7458zM374.1831 62.7119c-13.5352-7.0026-26.475-14.6007-39.0508-22.5627 1.2438-9.5482 2.9385-18.8565 14.7525-16.4881 13.8486 2.7757 23.8849 24.9323 24.2983 39.0508z" fill="#DC0000" style="stroke:none" />
    </g>
  </g>
</svg>
